<svg xmlns="http://www.w3.org/2000/svg" viewBox="0 0 960 540" role="img" aria-labelledby="title desc"><title id="title">Siemens Energy</title><desc id="desc">Concept illustration for Master’s thesis / CFD and commissioning. Decorative navigation artwork; not a measured result or site photograph.</desc><defs><linearGradient id="bg" x2="1" y2="1"><stop stop-color="#fffcf6"/><stop offset="1" stop-color="#e9eee4"/></linearGradient><filter id="shadow" x="-20%" y="-20%" width="140%" height="150%"><feDropShadow dx="0" dy="10" stdDeviation="12" flood-color="#24443f" flood-opacity=".1"/></filter></defs><rect width="960" height="540" fill="url(#bg)"/><circle cx="780" cy="110" r="160" fill="#dce6da" opacity=".6"/><path d="M170 406L487 488L807 373L486 287Z" fill="#cedbcf" opacity=".38"/><path d="M110 460H850" stroke="#b9cbbb" stroke-width="1"/><text x="48" y="48" fill="#496359" font-family="Arial,sans-serif" font-size="14" letter-spacing="2">MASTER’S THESIS / CFD AND COMMISSIONING</text><text x="48" y="90" fill="#24443f" font-family="Georgia,serif" font-size="31">Siemens Energy</text><g filter="url(#shadow)"><path d="M214 237H374Q432 237 460 265H728V340H460Q432 368 374 368H214Z" fill="#dce6da" stroke="#24443f" stroke-width="3"/><path d="M214 254H369Q424 254 450 284H728V320H450Q424 350 369 350H214Z" fill="#fffcf6" stroke="#24443f" stroke-width="2"/><path d="M180 260H356Q414 260 464 287H769" fill="none" stroke="#789eae" stroke-width="2.5"/><path d="M180 279H356Q414 279 464 293H769" fill="none" stroke="#789eae" stroke-width="2.5"/><path d="M180 298H356Q414 298 464 299H769" fill="none" stroke="#b6623c" stroke-width="2.5"/><path d="M180 317H356Q414 317 464 305H769" fill="none" stroke="#b6623c" stroke-width="2.5"/><path d="M180 336H356Q414 336 464 311H769" fill="none" stroke="#b6623c" stroke-width="2.5"/><path d="M505 230L505 261" fill="none" stroke="#b6623c" stroke-width="3" stroke-linecap="round"/><path d="M556 230L556 261" fill="none" stroke="#b6623c" stroke-width="3" stroke-linecap="round"/><path d="M607 230L607 261" fill="none" stroke="#b6623c" stroke-width="3" stroke-linecap="round"/><path d="M658 230L658 261" fill="none" stroke="#b6623c" stroke-width="3" stroke-linecap="round"/><rect x="583" y="174" width="52" height="44" rx="5" fill="#24443f" stroke="none" stroke-width="2"/><path d="M610 218L610 271" fill="none" stroke="#24443f" stroke-width="3" stroke-linecap="round"/><circle cx="610" cy="297" r="8" fill="#d6ab68" stroke="none" stroke-width="2"/></g><text x="48" y="509" fill="#597067" font-family="Arial,sans-serif" font-size="11" letter-spacing="1.6">ENGINEERING PORTFOLIO / CONCEPT ILLUSTRATION</text><path d="M816 498H908" stroke="#b6623c" stroke-width="3"/></svg>
