<svg xmlns="http://www.w3.org/2000/svg" viewBox="0 0 960 540" role="img" aria-labelledby="title desc"><title id="title">GB-FLEXABM</title><desc id="desc">Concept illustration for Electricity markets / research software. Decorative navigation artwork; not a measured result or site photograph.</desc><defs><linearGradient id="bg" x2="1" y2="1"><stop stop-color="#fffcf6"/><stop offset="1" stop-color="#e9eee4"/></linearGradient><filter id="shadow" x="-20%" y="-20%" width="140%" height="150%"><feDropShadow dx="0" dy="10" stdDeviation="12" flood-color="#24443f" flood-opacity=".1"/></filter></defs><rect width="960" height="540" fill="url(#bg)"/><circle cx="780" cy="110" r="160" fill="#dce6da" opacity=".6"/><path d="M170 406L487 488L807 373L486 287Z" fill="#cedbcf" opacity=".38"/><path d="M110 460H850" stroke="#b9cbbb" stroke-width="1"/><text x="48" y="48" fill="#496359" font-family="Arial,sans-serif" font-size="14" letter-spacing="2">ELECTRICITY MARKETS / RESEARCH SOFTWARE</text><text x="48" y="90" fill="#24443f" font-family="Georgia,serif" font-size="31">GB-FLEXABM</text><g filter="url(#shadow)"><path d="M365 304H402V273H425" fill="none" stroke="#8eafa0" stroke-width="9" stroke-linejoin="round" stroke-linecap="round"/><path d="M365 304H402V273H425" fill="none" stroke="#fffcf6" stroke-opacity=".35" stroke-width="2"/><path d="M582 275H617V321H650" fill="none" stroke="#b6623c" stroke-width="9" stroke-linejoin="round" stroke-linecap="round"/><path d="M582 275H617V321H650" fill="none" stroke="#fffcf6" stroke-opacity=".35" stroke-width="2"/><path d="M238 246l22 -11h126l-22 11z" fill="#dce6da" stroke="#24443f" stroke-width="2"/><path d="M364 246l22 -11v116l-22 11z" fill="#24443f"/><rect x="238" y="246" width="126" height="116" rx="3" fill="#fffcf6" stroke="#24443f" stroke-width="2"/><rect x="251" y="260" width="99" height="15" rx="3" fill="#dce6da" stroke="none" stroke-width="2"/><rect x="253" y="342" width="18.2" height="16" rx="2" fill="#8eafa0" stroke="none" stroke-width="2"/><rect x="278.25" y="326" width="18.2" height="32" rx="2" fill="#8eafa0" stroke="none" stroke-width="2"/><rect x="303.5" y="310" width="18.2" height="48" rx="2" fill="#8eafa0" stroke="none" stroke-width="2"/><rect x="328.75" y="294" width="18.2" height="64" rx="2" fill="#8eafa0" stroke="none" stroke-width="2"/><path d="M426 192l22 -11h155l-22 11z" fill="#dce6da" stroke="#24443f" stroke-width="2"/><path d="M581 192l22 -11v165l-22 11z" fill="#24443f"/><rect x="426" y="192" width="155" height="165" rx="3" fill="#24443f" stroke="#24443f" stroke-width="2"/><rect x="439" y="206" width="128" height="15" rx="3" fill="#8eafa0" stroke="none" stroke-width="2"/><rect x="441" y="321" width="24" height="32" rx="2" fill="#d6ab68" stroke="none" stroke-width="2"/><rect x="473.5" y="305" width="24" height="48" rx="2" fill="#d6ab68" stroke="none" stroke-width="2"/><rect x="506" y="289" width="24" height="64" rx="2" fill="#d6ab68" stroke="none" stroke-width="2"/><rect x="538.5" y="337" width="24" height="16" rx="2" fill="#d6ab68" stroke="none" stroke-width="2"/><path d="M650 279l22 -11h95l-22 11z" fill="#dce6da" stroke="#24443f" stroke-width="2"/><path d="M745 279l22 -11v101l-22 11z" fill="#24443f"/><rect x="650" y="279" width="95" height="101" rx="3" fill="#fffcf6" stroke="#24443f" stroke-width="2"/><rect x="663" y="293" width="68" height="15" rx="3" fill="#dce6da" stroke="none" stroke-width="2"/><rect x="665" y="328" width="12" height="48" rx="2" fill="#8eafa0" stroke="none" stroke-width="2"/><rect x="682.5" y="312" width="12" height="64" rx="2" fill="#8eafa0" stroke="none" stroke-width="2"/><rect x="700" y="360" width="12" height="16" rx="2" fill="#8eafa0" stroke="none" stroke-width="2"/><rect x="717.5" y="344" width="12" height="32" rx="2" fill="#8eafa0" stroke="none" stroke-width="2"/></g><text x="48" y="509" fill="#597067" font-family="Arial,sans-serif" font-size="11" letter-spacing="1.6">ENGINEERING PORTFOLIO / CONCEPT ILLUSTRATION</text><path d="M816 498H908" stroke="#b6623c" stroke-width="3"/></svg>
