<svg xmlns="http://www.w3.org/2000/svg" viewBox="0 0 960 540" role="img" aria-label="Industrial energy KPI mapping">
  <rect width="960" height="540" fill="#0b1728"/>
  <rect x="52" y="54" width="856" height="432" rx="24" fill="#122238" stroke="#22344f"/>
  <g fill="#07111f" stroke="#22344f" stroke-width="4">
    <rect x="104" y="112" width="190" height="300" rx="16"/>
    <rect x="386" y="112" width="190" height="300" rx="16"/>
    <rect x="668" y="112" width="190" height="300" rx="16"/>
  </g>
  <g fill="#65d6c9">
    <rect x="136" y="324" width="36" height="48"/>
    <rect x="184" y="270" width="36" height="102"/>
    <rect x="232" y="210" width="36" height="162"/>
    <rect x="418" y="286" width="36" height="86"/>
    <rect x="466" y="232" width="36" height="140"/>
    <rect x="514" y="164" width="36" height="208"/>
    <rect x="700" y="340" width="36" height="32"/>
    <rect x="748" y="252" width="36" height="120"/>
    <rect x="796" y="188" width="36" height="184"/>
  </g>
  <text x="142" y="162" fill="#e7edf7" font-family="Arial, sans-serif" font-size="24" font-weight="700">Baseline</text>
  <text x="424" y="162" fill="#e7edf7" font-family="Arial, sans-serif" font-size="24" font-weight="700">Drivers</text>
  <text x="706" y="162" fill="#e7edf7" font-family="Arial, sans-serif" font-size="24" font-weight="700">Roadmap</text>
</svg>
