<svg xmlns="http://www.w3.org/2000/svg" viewBox="0 0 960 540" role="img" aria-label="PyPSA grid congestion dashboard concept">
  <rect width="960" height="540" fill="#0b1728"/>
  <rect x="42" y="40" width="876" height="460" rx="24" fill="#122238" stroke="#22344f"/>
  <g stroke="#65d6c9" stroke-width="6" fill="none">
    <path d="M188 290 330 160l168 62 138-92 138 176"/>
    <path d="M330 160v202l168-140v170l138-262v238"/>
  </g>
  <g fill="#8bb8ff" stroke="#e7edf7" stroke-width="4">
    <circle cx="188" cy="290" r="28"/>
    <circle cx="330" cy="160" r="28"/>
    <circle cx="498" cy="222" r="28"/>
    <circle cx="636" cy="130" r="28"/>
    <circle cx="774" cy="306" r="28"/>
  </g>
  <rect x="92" y="384" width="220" height="58" rx="12" fill="#07111f" stroke="#22344f"/>
  <rect x="344" y="384" width="220" height="58" rx="12" fill="#07111f" stroke="#22344f"/>
  <rect x="596" y="384" width="220" height="58" rx="12" fill="#07111f" stroke="#22344f"/>
  <text x="116" y="421" fill="#65d6c9" font-family="Arial, sans-serif" font-size="24" font-weight="700">BESS sweep</text>
  <text x="372" y="421" fill="#65d6c9" font-family="Arial, sans-serif" font-size="24" font-weight="700">Bottlenecks</text>
  <text x="628" y="421" fill="#65d6c9" font-family="Arial, sans-serif" font-size="24" font-weight="700">Flex contracts</text>
</svg>
