<svg xmlns="http://www.w3.org/2000/svg" viewBox="0 0 960 540" role="img" aria-label="ASSIGNMENT DATA - KTH reports / labs / models">
  <defs>
    <linearGradient id="bg" x1="0" y1="0" x2="1" y2="1"><stop offset="0" stop-color="#070807"/><stop offset="1" stop-color="#111711"/></linearGradient>
    <pattern id="grid" width="48" height="48" patternUnits="userSpaceOnUse"><path d="M48 0H0V48" fill="none" stroke="#2d3a31" stroke-width="1" opacity="0.55"/></pattern>
    <style>
      .dash{fill:none;stroke:#9bd69f;stroke-width:5;stroke-linecap:round;stroke-dasharray:18 12;animation:dash 9s linear infinite}.amber{stroke:#d7b46a}.scan{animation:float 6s ease-in-out infinite}.label{font-family:ui-monospace,SFMono-Regular,Menlo,monospace}.muted{fill:#a8ada4}@keyframes dash{to{stroke-dashoffset:-180}}@keyframes float{50%{transform:translateY(-8px)}}
    </style>
  </defs>
  <rect width="960" height="540" fill="url(#bg)"/>
  <rect width="960" height="540" fill="url(#grid)" opacity="0.55"/>
  <rect x="34" y="30" width="892" height="480" rx="8" fill="#0b0f0b" opacity="0.86" stroke="#2d3a31"/>
  <text x="62" y="72" fill="#f2f0e7" class="label" font-size="24" font-weight="700">ASSIGNMENT DATA</text>
  <text x="62" y="104" fill="#a8ada4" class="label" font-size="15">KTH reports / labs / models</text>
    <g>
    <rect x="86" y="132" width="788" height="274" fill="#0b100c" stroke="#2d3a31"/>
    <g fill="#111711" stroke="#2d3a31"><rect x="110" y="160" width="150" height="86"/><rect x="282" y="160" width="150" height="86"/><rect x="454" y="160" width="150" height="86"/><rect x="626" y="160" width="150" height="86"/><rect x="110" y="274" width="150" height="86"/><rect x="282" y="274" width="150" height="86"/><rect x="454" y="274" width="150" height="86"/><rect x="626" y="274" width="150" height="86"/></g>
    <text x="132" y="211" fill="#9bd69f" font-family="ui-monospace,monospace" font-size="24" font-weight="700">MJ2515</text><text x="304" y="211" fill="#d7b46a" font-family="ui-monospace,monospace" font-size="24" font-weight="700">MJ2386</text><text x="476" y="211" fill="#8fa7b3" font-family="ui-monospace,monospace" font-size="24" font-weight="700">MILP</text><text x="648" y="211" fill="#9bd69f" font-family="ui-monospace,monospace" font-size="24" font-weight="700">IDA</text>
    <path class="dash" d="M128 334 C210 302 272 326 342 298 C412 270 486 302 560 280 C648 252 716 272 828 232"/>
  </g>
  <rect x="62" y="450" width="836" height="1" fill="#2d3a31"/>
  <text x="62" y="480" fill="#9bd69f" class="label" font-size="14">signal deck visual / portfolio-safe data preview</text>
</svg>
