<svg xmlns="http://www.w3.org/2000/svg" viewBox="0 0 960 540" role="img" aria-label="BATTERY DISCHARGE LAB - Ni-MH / Li-Po / Lead-acid curves">
  <defs>
    <linearGradient id="bg" x1="0" y1="0" x2="1" y2="1"><stop offset="0" stop-color="#070807"/><stop offset="1" stop-color="#111711"/></linearGradient>
    <pattern id="grid" width="48" height="48" patternUnits="userSpaceOnUse"><path d="M48 0H0V48" fill="none" stroke="#2d3a31" stroke-width="1" opacity="0.55"/></pattern>
    <style>
      .dash{fill:none;stroke:#9bd69f;stroke-width:5;stroke-linecap:round;stroke-dasharray:18 12;animation:dash 9s linear infinite}.amber{stroke:#d7b46a}.scan{animation:float 6s ease-in-out infinite}.label{font-family:ui-monospace,SFMono-Regular,Menlo,monospace}.muted{fill:#a8ada4}@keyframes dash{to{stroke-dashoffset:-180}}@keyframes float{50%{transform:translateY(-8px)}}
    </style>
  </defs>
  <rect width="960" height="540" fill="url(#bg)"/>
  <rect width="960" height="540" fill="url(#grid)" opacity="0.55"/>
  <rect x="34" y="30" width="892" height="480" rx="8" fill="#0b0f0b" opacity="0.86" stroke="#2d3a31"/>
  <text x="62" y="72" fill="#f2f0e7" class="label" font-size="24" font-weight="700">BATTERY DISCHARGE LAB</text>
  <text x="62" y="104" fill="#a8ada4" class="label" font-size="15">Ni-MH / Li-Po / Lead-acid curves</text>
    <g>
    <rect x="92" y="142" width="96" height="210" rx="14" fill="#121914" stroke="#9bd69f"/><rect x="122" y="120" width="36" height="22" rx="5" fill="#9bd69f"/>
    <rect x="214" y="142" width="96" height="210" rx="14" fill="#121914" stroke="#d7b46a"/><rect x="244" y="120" width="36" height="22" rx="5" fill="#d7b46a"/>
    <rect x="336" y="142" width="96" height="210" rx="14" fill="#121914" stroke="#8fa7b3"/><rect x="366" y="120" width="36" height="22" rx="5" fill="#8fa7b3"/>
    <path class="dash" d="M500 170 C590 184 658 238 806 334"/>
    <path class="dash amber" d="M500 214 C612 224 684 260 806 370"/>
    <path d="M500 258 C590 260 686 296 806 400" fill="none" stroke="#8fa7b3" stroke-width="4" stroke-dasharray="10 8"/>
  </g>
  <rect x="62" y="450" width="836" height="1" fill="#2d3a31"/>
  <text x="62" y="480" fill="#9bd69f" class="label" font-size="14">signal deck visual / portfolio-safe data preview</text>
</svg>
