<svg xmlns="http://www.w3.org/2000/svg" viewBox="0 0 960 540" role="img" aria-label="Germany LEAP energy transition scenario analysis">
  <rect width="960" height="540" fill="#0d1016"/>
  <rect x="28" y="26" width="904" height="488" rx="18" fill="#141923" stroke="#343640"/>
  <text x="56" y="62" fill="#ffd166" font-family="ui-monospace,monospace" font-size="13" font-weight="700">GERMANY ENERGY TRANSITION ANALYSIS - LEAP</text>
  <text x="56" y="82" fill="#b9b4aa" font-family="ui-monospace,monospace" font-size="10">electricity mix - cost - carbon pathway - technology scenarios</text>
  <rect x="56" y="116" width="520" height="318" rx="16" fill="#0f131b" stroke="#2f3542"/>
  <g stroke="#343640" stroke-width="1">
    <line x1="96" y1="376" x2="540" y2="376"/>
    <line x1="96" y1="316" x2="540" y2="316"/>
    <line x1="96" y1="256" x2="540" y2="256"/>
    <line x1="96" y1="196" x2="540" y2="196"/>
    <line x1="96" y1="136" x2="540" y2="136"/>
  </g>
  <path d="M96 162 C176 176 236 204 300 240 C376 284 450 336 540 374" fill="none" stroke="#ff6a4a" stroke-width="4"/>
  <path d="M96 164 C176 156 236 150 300 164 C376 180 450 232 540 270" fill="none" stroke="#ffd166" stroke-width="4"/>
  <path d="M96 164 C176 154 236 136 300 128 C376 120 450 126 540 138" fill="none" stroke="#c7f36f" stroke-width="4"/>
  <g font-family="ui-monospace,monospace" font-size="11" fill="#b9b4aa">
    <text x="96" y="404">2025</text><text x="240" y="404">2035</text><text x="384" y="404">2045</text><text x="508" y="404">2050</text>
    <text x="420" y="150" fill="#c7f36f">renewables + storage</text>
    <text x="404" y="282" fill="#ffd166">mixed transition</text>
    <text x="408" y="360" fill="#ff6a4a">fossil lock-in</text>
  </g>
  <rect x="616" y="116" width="288" height="318" rx="16" fill="#0f131b" stroke="#2f3542"/>
  <text x="642" y="150" fill="#f4f1ea" font-family="IBM Plex Sans,Arial,sans-serif" font-size="16" font-weight="700">Scenario stack</text>
  <g font-family="ui-monospace,monospace" font-size="11" fill="#b9b4aa">
    <text x="642" y="186">Coal phase-down</text>
    <text x="642" y="222">Gas bridge sensitivity</text>
    <text x="642" y="258">Renewable build-out</text>
    <text x="642" y="294">Storage and nuclear option</text>
    <text x="642" y="330">EPBD / policy context</text>
  </g>
  <g transform="translate(642 354)">
    <rect x="0" y="0" width="42" height="36" rx="6" fill="#ff6a4a"/>
    <rect x="52" y="0" width="42" height="36" rx="6" fill="#ffd166"/>
    <rect x="104" y="0" width="42" height="36" rx="6" fill="#c7f36f"/>
    <rect x="156" y="0" width="42" height="36" rx="6" fill="#8ec8ff"/>
    <text x="0" y="56" fill="#b9b4aa" font-family="ui-monospace,monospace" font-size="10">cost / carbon / capacity / policy</text>
  </g>
  <text x="56" y="468" fill="#b9b4aa" font-family="ui-monospace,monospace" font-size="11">LEAP scenario logic -> power mix -> cost exposure -> carbon pathway</text>
</svg>
