<svg xmlns="http://www.w3.org/2000/svg" viewBox="0 0 960 540" role="img" aria-label="Rotating machinery vibration spectral analysis">
  <rect width="960" height="540" fill="#0d141d"/>
  <rect x="34" y="30" width="892" height="480" rx="22" fill="#142233" stroke="#2a3b4f"/>
  <rect x="34" y="30" width="892" height="62" rx="22" fill="#102033"/>
  <text x="62" y="69" fill="#e6edf3" font-family="ui-monospace,monospace" font-size="20" font-weight="700">ROTATING MACHINERY | FFT + FAULT FREQUENCY DIAGNOSTICS</text>

  <rect x="66" y="126" width="558" height="330" rx="14" fill="#0d1621" stroke="#2a3b4f"/>
  <g stroke="#2a3b4f"><line x1="96" y1="402" x2="590" y2="402"/><line x1="96" y1="334" x2="590" y2="334"/><line x1="96" y1="266" x2="590" y2="266"/><line x1="96" y1="198" x2="590" y2="198"/></g>
  <g fill="#60a5fa">
    <rect x="118" y="338" width="16" height="64"/><rect x="176" y="286" width="16" height="116"/>
    <rect x="234" y="228" width="16" height="174"/><rect x="292" y="312" width="16" height="90"/>
    <rect x="350" y="182" width="16" height="220"/><rect x="408" y="304" width="16" height="98"/>
    <rect x="466" y="250" width="16" height="152"/><rect x="524" y="328" width="16" height="74"/>
  </g>
  <g font-family="ui-monospace,monospace" font-size="12" fill="#9fb2c7">
    <text x="110" y="424">1x</text><text x="168" y="424">2x</text><text x="226" y="424">3x</text><text x="284" y="424">4x</text>
    <text x="342" y="424">BPFI</text><text x="456" y="424">BPFO</text>
  </g>

  <rect x="652" y="126" width="242" height="330" rx="14" fill="#0d1621" stroke="#2a3b4f"/>
  <text x="676" y="162" fill="#7dd3fc" font-family="ui-monospace,monospace" font-size="16" font-weight="700">DIAGNOSTIC NOTES</text>
  <g font-family="ui-monospace,monospace" font-size="14" fill="#d9e3ec">
    <text x="676" y="196">Sensor: IEPE accel</text>
    <text x="676" y="222">Sample rate: 25.6 kHz</text>
    <text x="676" y="248">Window: Hanning</text>
    <text x="676" y="274">Main peak: 3x RPM</text>
    <text x="676" y="300">Bearing bands present</text>
  </g>
</svg>
