<svg xmlns="http://www.w3.org/2000/svg" viewBox="0 0 960 540" role="img" aria-label="Industrial KPI toolkit dashboard">
  <rect width="960" height="540" fill="#0d141d"/>
  <rect x="34" y="30" width="892" height="480" rx="22" fill="#142233" stroke="#2a3b4f"/>
  <rect x="34" y="30" width="892" height="62" rx="22" fill="#102033"/>
  <text x="62" y="69" fill="#e6edf3" font-family="ui-monospace,monospace" font-size="20" font-weight="700">ENERGY KPI TOOLKIT | NORMALISATION + ENPI TRACKING</text>

  <rect x="66" y="126" width="558" height="330" rx="14" fill="#0d1621" stroke="#2a3b4f"/>
  <g stroke="#2a3b4f"><line x1="96" y1="402" x2="590" y2="402"/><line x1="96" y1="344" x2="590" y2="344"/><line x1="96" y1="286" x2="590" y2="286"/><line x1="96" y1="228" x2="590" y2="228"/></g>
  <polyline points="96,214 124,220 152,222 180,228 208,238 236,252 264,268 292,284 320,296 348,304 376,316 404,326 432,334 460,342 488,352 516,360 544,366 572,370" fill="none" stroke="#38bdf8" stroke-width="4"/>
  <polyline points="96,246 124,248 152,252 180,258 208,266 236,278 264,292 292,306 320,320 348,332 376,344 404,352 432,360 460,366 488,372 516,376 544,380 572,384" fill="none" stroke="#22c55e" stroke-width="4" stroke-dasharray="8 6"/>
  <text x="104" y="190" fill="#7dd3fc" font-family="ui-monospace,monospace" font-size="14">Baseline EnPI</text>
  <text x="248" y="262" fill="#86efac" font-family="ui-monospace,monospace" font-size="14">Normalised EnPI</text>

  <rect x="652" y="126" width="242" height="330" rx="14" fill="#0d1621" stroke="#2a3b4f"/>
  <text x="676" y="162" fill="#7dd3fc" font-family="ui-monospace,monospace" font-size="16" font-weight="700">KPI PANEL</text>
  <g font-family="ui-monospace,monospace" font-size="14" fill="#d9e3ec">
    <text x="676" y="196">Energy intensity: -22%</text>
    <text x="676" y="222">SEU mapped: 3 streams</text>
    <text x="676" y="248">Regression adj factors</text>
    <text x="676" y="274">M&amp;V package: complete</text>
    <text x="676" y="300">ISO 50001 aligned</text>
  </g>
</svg>
