<svg xmlns="http://www.w3.org/2000/svg" viewBox="0 0 960 540" role="img" aria-label="M-TES PCM LAB - RT60 HC discharge characterisation">
  <defs>
    <linearGradient id="bg" x1="0" y1="0" x2="1" y2="1"><stop offset="0" stop-color="#070807"/><stop offset="1" stop-color="#111711"/></linearGradient>
    <pattern id="grid" width="48" height="48" patternUnits="userSpaceOnUse"><path d="M48 0H0V48" fill="none" stroke="#2d3a31" stroke-width="1" opacity="0.55"/></pattern>
    <style>
      .dash{fill:none;stroke:#9bd69f;stroke-width:5;stroke-linecap:round;stroke-dasharray:18 12;animation:dash 9s linear infinite}.amber{stroke:#d7b46a}.scan{animation:float 6s ease-in-out infinite}.label{font-family:ui-monospace,SFMono-Regular,Menlo,monospace}.muted{fill:#a8ada4}@keyframes dash{to{stroke-dashoffset:-180}}@keyframes float{50%{transform:translateY(-8px)}}
    </style>
  </defs>
  <rect width="960" height="540" fill="url(#bg)"/>
  <rect width="960" height="540" fill="url(#grid)" opacity="0.55"/>
  <rect x="34" y="30" width="892" height="480" rx="8" fill="#0b0f0b" opacity="0.86" stroke="#2d3a31"/>
  <text x="62" y="72" fill="#f2f0e7" class="label" font-size="24" font-weight="700">M-TES PCM LAB</text>
  <text x="62" y="104" fill="#a8ada4" class="label" font-size="15">RT60 HC discharge characterisation</text>
    <g>
    <rect x="96" y="150" width="270" height="210" rx="14" fill="#111711" stroke="#8fa7b3"/>
    <path d="M132 318 C184 200 268 206 330 282" fill="none" stroke="#d7b46a" stroke-width="6"/>
    <path class="dash" d="M430 330 C520 230 624 238 820 150"/>
    <path class="dash amber" d="M430 360 C540 330 650 292 820 250"/>
    <rect x="132" y="238" width="42" height="82" fill="#9bd69f"/><rect x="190" y="210" width="42" height="110" fill="#8fa7b3"/><rect x="248" y="180" width="42" height="140" fill="#d7b46a"/>
  </g>
  <rect x="62" y="450" width="836" height="1" fill="#2d3a31"/>
  <text x="62" y="480" fill="#9bd69f" class="label" font-size="14">signal deck visual / portfolio-safe data preview</text>
</svg>
