<svg xmlns="http://www.w3.org/2000/svg" viewBox="0 0 960 540" role="img" aria-label="Engineering backend API and automation workflow">
  <rect width="960" height="540" fill="#0d141d"/>
  <rect x="34" y="30" width="892" height="480" rx="22" fill="#142233" stroke="#2a3b4f"/>
  <rect x="34" y="30" width="892" height="62" rx="22" fill="#102033"/>
  <text x="62" y="69" fill="#e6edf3" font-family="ui-monospace,monospace" font-size="20" font-weight="700">BACKEND/API | DATA PIPELINE + QUALITY CHECKS</text>

  <rect x="66" y="126" width="558" height="330" rx="14" fill="#0d1621" stroke="#2a3b4f"/>
  <g fill="#0f1b2a" stroke="#3a4c62" stroke-width="2">
    <rect x="98" y="170" width="130" height="72" rx="10"/>
    <rect x="260" y="170" width="130" height="72" rx="10"/>
    <rect x="422" y="170" width="130" height="72" rx="10"/>
    <rect x="260" y="290" width="130" height="72" rx="10"/>
  </g>
  <g font-family="ui-monospace,monospace" font-size="14" fill="#dbe7f3" font-weight="700">
    <text x="116" y="211">JSON SOURCE</text>
    <text x="286" y="211">NODE API</text>
    <text x="448" y="211">VALIDATION</text>
    <text x="286" y="331">ADMIN UI</text>
  </g>
  <g stroke="#60a5fa" stroke-width="4" fill="none" stroke-linecap="round">
    <path d="M228 206H260"/><path d="M390 206H422"/><path d="M325 242V290"/>
  </g>

  <rect x="652" y="126" width="242" height="330" rx="14" fill="#0d1621" stroke="#2a3b4f"/>
  <text x="676" y="162" fill="#7dd3fc" font-family="ui-monospace,monospace" font-size="16" font-weight="700">ENGINEERING OPS</text>
  <g font-family="ui-monospace,monospace" font-size="14" fill="#d9e3ec">
    <text x="676" y="196">REST endpoints: 12+</text>
    <text x="676" y="222">Auth: token + Firebase</text>
    <text x="676" y="248">Versioned config</text>
    <text x="676" y="274">Fallback static JSON</text>
    <text x="676" y="300">Admin CRUD with guardrails</text>
  </g>
</svg>
