<svg xmlns="http://www.w3.org/2000/svg" viewBox="0 0 960 540" role="img" aria-label="PyPSA-NL grid congestion and BESS siting dashboard">
  <defs>
    <marker id="arr-red" markerWidth="8" markerHeight="8" refX="6" refY="3" orient="auto">
      <path d="M0,0 L0,6 L8,3 Z" fill="#ff6a4a"/>
    </marker>
    <marker id="arr-yel" markerWidth="8" markerHeight="8" refX="6" refY="3" orient="auto">
      <path d="M0,0 L0,6 L8,3 Z" fill="#ffd166"/>
    </marker>
    <marker id="arr-grn" markerWidth="8" markerHeight="8" refX="6" refY="3" orient="auto">
      <path d="M0,0 L0,6 L8,3 Z" fill="#4ade80"/>
    </marker>
    <filter id="glow" x="-20%" y="-20%" width="140%" height="140%">
      <feGaussianBlur stdDeviation="3" result="blur"/>
      <feMerge><feMergeNode in="blur"/><feMergeNode in="SourceGraphic"/></feMerge>
    </filter>
  </defs>

  
  <rect width="960" height="540" fill="#09131f"/>
  
  <rect x="20" y="20" width="640" height="500" rx="18" fill="#0f1e30" stroke="#1e3248" stroke-width="1"/>
  
  <rect x="678" y="20" width="264" height="500" rx="18" fill="#0f1e30" stroke="#1e3248" stroke-width="1"/>

  
  <g stroke="#1a2e42" stroke-width="0.6" stroke-dasharray="4 6">
    <line x1="40" y1="100" x2="640" y2="100"/>
    <line x1="40" y1="200" x2="640" y2="200"/>
    <line x1="40" y1="300" x2="640" y2="300"/>
    <line x1="40" y1="400" x2="640" y2="400"/>
    <line x1="150" y1="40" x2="150" y2="500"/>
    <line x1="300" y1="40" x2="300" y2="500"/>
    <line x1="450" y1="40" x2="450" y2="500"/>
    <line x1="600" y1="40" x2="600" y2="500"/>
  </g>

  
  <text x="42" y="54" fill="#8bb8ff" font-family="ui-monospace,monospace" font-size="11" font-weight="700" letter-spacing="1">NL GRID - CONGESTION ANALYSIS</text>
  <text x="42" y="72" fill="#4a6a88" font-family="ui-monospace,monospace" font-size="10">PyPSA - HiGHS - BESS sweep - hourly dispatch</text>

  

  
  <line x1="236" y1="142" x2="480" y2="152" stroke="#ff6a4a" stroke-width="7" stroke-linecap="round" marker-end="url(#arr-red)" opacity="0.9"/>
  
  <line x1="224" y1="158" x2="312" y2="278" stroke="#ffd166" stroke-width="6" stroke-linecap="round" marker-end="url(#arr-yel)" opacity="0.85"/>
  
  <line x1="468" y1="168" x2="334" y2="278" stroke="#ffd166" stroke-width="5" stroke-linecap="round" marker-end="url(#arr-yel)" opacity="0.7"/>
  
  <line x1="308" y1="298" x2="210" y2="408" stroke="#ff6a4a" stroke-width="6" stroke-linecap="round" marker-end="url(#arr-red)" opacity="0.85"/>
  
  <line x1="338" y1="298" x2="490" y2="392" stroke="#ffd166" stroke-width="5" stroke-linecap="round" marker-end="url(#arr-yel)" opacity="0.75"/>
  
  <line x1="232" y1="430" x2="468" y2="432" stroke="#4ade80" stroke-width="5" stroke-linecap="round" marker-end="url(#arr-grn)" opacity="0.7"/>
  
  <line x1="502" y1="402" x2="502" y2="180" stroke="#4ade80" stroke-width="4" stroke-linecap="round" marker-end="url(#arr-grn)" opacity="0.6"/>

  
  <g font-family="ui-monospace,monospace" font-size="11" font-weight="700">
    
    <rect x="331" y="134" width="42" height="18" rx="5" fill="#1a0c08"/>
    <text x="352" y="147" fill="#ff6a4a" text-anchor="middle">93%</text>
    
    <rect x="249" y="198" width="38" height="18" rx="5" fill="#1a1608"/>
    <text x="268" y="211" fill="#ffd166" text-anchor="middle">78%</text>
    
    <rect x="238" y="346" width="38" height="18" rx="5" fill="#1a0c08"/>
    <text x="257" y="359" fill="#ff6a4a" text-anchor="middle">86%</text>
    
    <rect x="384" y="207" width="38" height="18" rx="5" fill="#1a1608"/>
    <text x="403" y="220" fill="#ffd166" text-anchor="middle">61%</text>
    
    <rect x="395" y="333" width="38" height="18" rx="5" fill="#1a1608"/>
    <text x="414" y="346" fill="#ffd166" text-anchor="middle">63%</text>
    
    <rect x="328" y="420" width="38" height="18" rx="5" fill="#081a0c"/>
    <text x="347" y="433" fill="#4ade80" text-anchor="middle">41%</text>
  </g>

  

  
  <circle cx="222" cy="140" r="36" fill="#0f1e30" stroke="#8bb8ff" stroke-width="2.5"/>
  <circle cx="222" cy="140" r="28" fill="#152640" stroke="#8bb8ff" stroke-width="1" opacity="0.5"/>
  <text x="222" y="136" fill="#8bb8ff" font-family="ui-monospace,monospace" font-size="10" font-weight="700" text-anchor="middle">NL-N</text>
  <text x="222" y="150" fill="#6090b0" font-family="system-ui,sans-serif" font-size="9" text-anchor="middle">Wind</text>

  
  <circle cx="502" cy="158" r="34" fill="#0f1e30" stroke="#ffd166" stroke-width="2"/>
  <circle cx="502" cy="158" r="26" fill="#1e1a08" stroke="#ffd166" stroke-width="1" opacity="0.4"/>
  <text x="502" y="154" fill="#ffd166" font-family="ui-monospace,monospace" font-size="10" font-weight="700" text-anchor="middle">NL-E</text>
  <text x="502" y="168" fill="#907840" font-family="system-ui,sans-serif" font-size="9" text-anchor="middle">Load</text>

  
  <circle cx="322" cy="284" r="42" fill="#0f1e30" stroke="#f4f1ea" stroke-width="2.5"/>
  <circle cx="322" cy="284" r="32" fill="#1a1e26" stroke="#f4f1ea" stroke-width="1" opacity="0.35"/>
  <text x="322" y="280" fill="#f4f1ea" font-family="ui-monospace,monospace" font-size="10" font-weight="700" text-anchor="middle">NL-C</text>
  <text x="322" y="294" fill="#888080" font-family="system-ui,sans-serif" font-size="9" text-anchor="middle">Hub</text>

  
  <circle cx="218" cy="428" r="36" fill="#0f1e30" stroke="#ff8a5b" stroke-width="1.5" stroke-dasharray="5 3"/>
  <circle cx="218" cy="428" r="28" fill="#0f1e30" stroke="#ff6a4a" stroke-width="2"/>
  <circle cx="218" cy="428" r="20" fill="#1e130c" stroke="#ff6a4a" stroke-width="1" opacity="0.5"/>
  <text x="218" y="424" fill="#ff8a5b" font-family="ui-monospace,monospace" font-size="10" font-weight="700" text-anchor="middle">NL-S</text>
  <text x="218" y="437" fill="#804030" font-family="system-ui,sans-serif" font-size="8.5" text-anchor="middle">+BESS</text>

  
  <circle cx="502" cy="416" r="36" fill="#0f1e30" stroke="#ff8a5b" stroke-width="1.5" stroke-dasharray="5 3"/>
  <circle cx="502" cy="416" r="28" fill="#0f1e30" stroke="#ff6a4a" stroke-width="2"/>
  <circle cx="502" cy="416" r="20" fill="#1e130c" stroke="#ff6a4a" stroke-width="1" opacity="0.5"/>
  <text x="502" y="412" fill="#ff8a5b" font-family="ui-monospace,monospace" font-size="10" font-weight="700" text-anchor="middle">NL-W</text>
  <text x="502" y="425" fill="#804030" font-family="system-ui,sans-serif" font-size="8.5" text-anchor="middle">+BESS</text>

  
  <text x="42" y="492" fill="#4a6a88" font-family="ui-monospace,monospace" font-size="10">Loading:</text>
  <line x1="102" y1="488" x2="126" y2="488" stroke="#4ade80" stroke-width="4" stroke-linecap="round"/>
  <text x="130" y="492" fill="#4ade80" font-family="ui-monospace,monospace" font-size="10">&lt;60%</text>
  <line x1="172" y1="488" x2="196" y2="488" stroke="#ffd166" stroke-width="4" stroke-linecap="round"/>
  <text x="200" y="492" fill="#ffd166" font-family="ui-monospace,monospace" font-size="10">60-80%</text>
  <line x1="252" y1="488" x2="276" y2="488" stroke="#ff6a4a" stroke-width="4" stroke-linecap="round"/>
  <text x="280" y="492" fill="#ff6a4a" font-family="ui-monospace,monospace" font-size="10">&gt;80% congested</text>

  
  <text x="698" y="54" fill="#8bb8ff" font-family="ui-monospace,monospace" font-size="11" font-weight="700" letter-spacing="1">SCENARIO KPIs</text>
  <text x="698" y="70" fill="#4a6a88" font-family="ui-monospace,monospace" font-size="9">BESS sweep - NL 2030</text>

  
  <line x1="698" y1="82" x2="926" y2="82" stroke="#1e3248" stroke-width="1"/>

  
  <text x="698" y="108" fill="#7a9ab8" font-family="system-ui,sans-serif" font-size="11">Congested lines</text>
  <text x="926" y="108" fill="#ff6a4a" font-family="ui-monospace,monospace" font-size="22" font-weight="700" text-anchor="end">2 / 6</text>
  <line x1="698" y1="118" x2="926" y2="118" stroke="#1e3248" stroke-width="1"/>

  
  <text x="698" y="144" fill="#7a9ab8" font-family="system-ui,sans-serif" font-size="11">Curtailment</text>
  <text x="926" y="144" fill="#ffd166" font-family="ui-monospace,monospace" font-size="22" font-weight="700" text-anchor="end">8.4%</text>
  <line x1="698" y1="154" x2="926" y2="154" stroke="#1e3248" stroke-width="1"/>

  
  <text x="698" y="180" fill="#7a9ab8" font-family="system-ui,sans-serif" font-size="11">BESS sited</text>
  <text x="926" y="180" fill="#4ade80" font-family="ui-monospace,monospace" font-size="22" font-weight="700" text-anchor="end">3 sites</text>
  <line x1="698" y1="190" x2="926" y2="190" stroke="#1e3248" stroke-width="1"/>

  
  <text x="698" y="216" fill="#7a9ab8" font-family="system-ui,sans-serif" font-size="11">Peak line loading</text>
  <text x="926" y="216" fill="#ff6a4a" font-family="ui-monospace,monospace" font-size="22" font-weight="700" text-anchor="end">93%</text>
  <line x1="698" y1="226" x2="926" y2="226" stroke="#1e3248" stroke-width="1"/>

  
  <text x="698" y="252" fill="#7a9ab8" font-family="system-ui,sans-serif" font-size="11">BESS capacity</text>
  <text x="926" y="252" fill="#8bb8ff" font-family="ui-monospace,monospace" font-size="22" font-weight="700" text-anchor="end">420 MW</text>
  <line x1="698" y1="262" x2="926" y2="262" stroke="#1e3248" stroke-width="1"/>

  
  <text x="698" y="290" fill="#4a6a88" font-family="ui-monospace,monospace" font-size="10" letter-spacing="0.5">HOURLY DISPATCH - NL-C BUS</text>
  
  <rect x="698" y="298" width="228" height="80" rx="8" fill="#080f18" stroke="#1e3248" stroke-width="1"/>
  
  <polyline points="698,366 708,362 718,358 728,354 738,350 748,352 758,356 768,363 778,369 788,372 798,374 808,375 818,374 828,372 838,369 848,363 858,356 868,352 878,348 888,350 898,352 908,356 916,358 926,360 926,378 698,378" fill="#65d6c9" opacity="0.3" clip-path="inset(0 0 0 0 round 8px)"/>
  
  <polyline points="698,366 708,362 718,358 728,354 738,350 748,348 758,344 768,336 778,326 788,316 798,308 808,302 818,298 828,300 838,306 848,314 858,326 868,340 878,348 888,350 898,352 908,356 916,358 926,360 888,350 878,348 868,348 858,356 848,363 838,369 828,372 818,374 808,375 798,374 788,372 778,369 768,363 758,356 748,352 738,350 728,354 718,358 708,362 698,366" fill="#c7f36f" opacity="0.25" clip-path="inset(0 0 0 0 round 8px)"/>
  
  <polyline points="698,362 708,364 718,366 728,368 738,366 748,360 758,344 768,332 778,334 788,338 798,340 808,344 818,342 828,340 838,342 848,340 858,336 868,328 878,324 888,330 898,340 908,348 916,354 926,358" fill="none" stroke="#f4f1ea" stroke-width="1.8" stroke-linejoin="round" stroke-linecap="round" opacity="0.8" clip-path="inset(0 0 0 0 round 8px)"/>
  
  <g fill="#3a5870" font-size="8" font-family="ui-monospace,monospace" text-anchor="middle">
    <text x="698" y="392">0h</text>
    <text x="754" y="392">6h</text>
    <text x="812" y="392">12h</text>
    <text x="870" y="392">18h</text>
    <text x="926" y="392">24h</text>
  </g>

  
  <g font-size="9" font-family="system-ui,sans-serif" font-weight="600">
    <rect x="698" y="402" width="8" height="8" rx="2" fill="#65d6c9" opacity="0.65"/>
    <text x="710" y="410" fill="#4a6a88">Wind</text>
    <rect x="748" y="402" width="8" height="8" rx="2" fill="#c7f36f" opacity="0.65"/>
    <text x="760" y="410" fill="#4a6a88">Solar</text>
    <line x1="800" y1="406" x2="812" y2="406" stroke="#f4f1ea" stroke-width="2" opacity="0.65"/>
    <text x="816" y="410" fill="#4a6a88">Demand</text>
  </g>

  
  <text x="698" y="444" fill="#4a6a88" font-family="ui-monospace,monospace" font-size="10">Stack</text>
  <text x="698" y="462" fill="#8bb8ff" font-family="system-ui,sans-serif" font-size="11" font-weight="600">PyPSA - Linopy - HiGHS</text>
  <text x="698" y="478" fill="#65d6c9" font-family="system-ui,sans-serif" font-size="11" font-weight="600">Streamlit - pandas - Plotly</text>
  <text x="698" y="494" fill="#c7f36f" font-family="system-ui,sans-serif" font-size="11" font-weight="600">8760 h - 5 regions - BESS sweep</text>
</svg>
