<svg xmlns="http://www.w3.org/2000/svg" viewBox="0 0 960 540" role="img" aria-label="Thermal prototype and embedded systems visual">
  <rect width="960" height="540" fill="#0d1016"/>
  <rect x="28" y="26" width="904" height="488" rx="18" fill="#141923" stroke="#343640"/>
  <text x="56" y="62" fill="#ffb86f" font-family="ui-monospace,monospace" font-size="13" font-weight="700">THERMAL / EMBEDDED / PROTOTYPE BUILDS</text>
  <text x="56" y="82" fill="#b9b4aa" font-family="ui-monospace,monospace" font-size="10">Peltier cooling - Arduino control - sensor logic - automotive technology studies</text>
  <rect x="82" y="132" width="290" height="246" rx="18" fill="#0f131b" stroke="#343640"/>
  <rect x="132" y="182" width="190" height="120" rx="14" fill="#1d2027" stroke="#8ec8ff"/>
  <rect x="158" y="208" width="138" height="68" rx="8" fill="#0d1016" stroke="#343640"/>
  <g stroke="#8ec8ff" stroke-width="3">
    <line x1="174" y1="220" x2="280" y2="220"/>
    <line x1="174" y1="242" x2="280" y2="242"/>
    <line x1="174" y1="264" x2="280" y2="264"/>
  </g>
  <path d="M112 330 C166 300 206 354 260 324 C292 306 318 314 346 336" fill="none" stroke="#ff6a4a" stroke-width="4"/>
  <rect x="438" y="132" width="420" height="246" rx="18" fill="#0f131b" stroke="#343640"/>
  <text x="470" y="168" fill="#f4f1ea" font-family="IBM Plex Sans,Arial,sans-serif" font-size="16" font-weight="700">Prototype signal chain</text>
  <g fill="#1d2027" stroke="#343640">
    <rect x="476" y="212" width="92" height="58" rx="10"/>
    <rect x="608" y="212" width="92" height="58" rx="10"/>
    <rect x="740" y="212" width="92" height="58" rx="10"/>
  </g>
  <g font-family="ui-monospace,monospace" font-size="11" fill="#b9b4aa" text-anchor="middle">
    <text x="522" y="246">sensor</text>
    <text x="654" y="246">control</text>
    <text x="786" y="246">actuator</text>
  </g>
  <g stroke="#c7f36f" stroke-width="4">
    <line x1="568" y1="241" x2="608" y2="241"/>
    <line x1="700" y1="241" x2="740" y2="241"/>
  </g>
  <polyline points="474,336 508,330 542,318 576,338 610,312 644,304 678,324 712,314 746,300 790,306 832,292" fill="none" stroke="#ffd166" stroke-width="3"/>
  <text x="56" y="468" fill="#b9b4aa" font-family="ui-monospace,monospace" font-size="11">Prototype mindset: physics + sensors + low-cost controls + practical constraints</text>
</svg>
