<svg xmlns="http://www.w3.org/2000/svg" viewBox="0 0 960 540" role="img" aria-label="BUILT ENVIRONMENT - IDA ICE supply-system comparison">
  <defs>
    <linearGradient id="bg" x1="0" y1="0" x2="1" y2="1"><stop offset="0" stop-color="#070807"/><stop offset="1" stop-color="#111711"/></linearGradient>
    <pattern id="grid" width="48" height="48" patternUnits="userSpaceOnUse"><path d="M48 0H0V48" fill="none" stroke="#2d3a31" stroke-width="1" opacity="0.55"/></pattern>
    <style>
      .dash{fill:none;stroke:#9bd69f;stroke-width:5;stroke-linecap:round;stroke-dasharray:18 12;animation:dash 9s linear infinite}.amber{stroke:#d7b46a}.scan{animation:float 6s ease-in-out infinite}.label{font-family:ui-monospace,SFMono-Regular,Menlo,monospace}.muted{fill:#a8ada4}@keyframes dash{to{stroke-dashoffset:-180}}@keyframes float{50%{transform:translateY(-8px)}}
    </style>
  </defs>
  <rect width="960" height="540" fill="url(#bg)"/>
  <rect width="960" height="540" fill="url(#grid)" opacity="0.55"/>
  <rect x="34" y="30" width="892" height="480" rx="8" fill="#0b0f0b" opacity="0.86" stroke="#2d3a31"/>
  <text x="62" y="72" fill="#f2f0e7" class="label" font-size="24" font-weight="700">BUILT ENVIRONMENT</text>
  <text x="62" y="104" fill="#a8ada4" class="label" font-size="15">IDA ICE supply-system comparison</text>
    <g>
    <rect x="110" y="140" width="240" height="250" fill="#111711" stroke="#8fa7b3"/>
    <g fill="#223024"><rect x="136" y="166" width="40" height="34"/><rect x="196" y="166" width="40" height="34"/><rect x="256" y="166" width="40" height="34"/><rect x="136" y="222" width="40" height="34"/><rect x="196" y="222" width="40" height="34"/><rect x="256" y="222" width="40" height="34"/><rect x="136" y="278" width="40" height="34"/><rect x="196" y="278" width="40" height="34"/><rect x="256" y="278" width="40" height="34"/></g>
    <path class="dash" d="M430 350 L500 310 L570 328 L642 238 L710 260 L820 174"/>
    <rect x="430" y="376" width="70" height="32" fill="#9bd69f"/><rect x="514" y="350" width="70" height="58" fill="#d7b46a"/><rect x="598" y="296" width="70" height="112" fill="#8fa7b3"/><rect x="682" y="248" width="70" height="160" fill="#9bd69f"/>
  </g>
  <rect x="62" y="450" width="836" height="1" fill="#2d3a31"/>
  <text x="62" y="480" fill="#9bd69f" class="label" font-size="14">signal deck visual / portfolio-safe data preview</text>
</svg>
