<svg xmlns="http://www.w3.org/2000/svg" viewBox="0 0 960 540" role="img" aria-label="EMERGENCY ENERGY MODULE - Post-disaster polygeneration">
  <defs>
    <linearGradient id="bg" x1="0" y1="0" x2="1" y2="1"><stop offset="0" stop-color="#070807"/><stop offset="1" stop-color="#111711"/></linearGradient>
    <pattern id="grid" width="48" height="48" patternUnits="userSpaceOnUse"><path d="M48 0H0V48" fill="none" stroke="#2d3a31" stroke-width="1" opacity="0.55"/></pattern>
    <style>
      .dash{fill:none;stroke:#9bd69f;stroke-width:5;stroke-linecap:round;stroke-dasharray:18 12;animation:dash 9s linear infinite}.amber{stroke:#d7b46a}.scan{animation:float 6s ease-in-out infinite}.label{font-family:ui-monospace,SFMono-Regular,Menlo,monospace}.muted{fill:#a8ada4}@keyframes dash{to{stroke-dashoffset:-180}}@keyframes float{50%{transform:translateY(-8px)}}
    </style>
  </defs>
  <rect width="960" height="540" fill="url(#bg)"/>
  <rect width="960" height="540" fill="url(#grid)" opacity="0.55"/>
  <rect x="34" y="30" width="892" height="480" rx="8" fill="#0b0f0b" opacity="0.86" stroke="#2d3a31"/>
  <text x="62" y="72" fill="#f2f0e7" class="label" font-size="24" font-weight="700">EMERGENCY ENERGY MODULE</text>
  <text x="62" y="104" fill="#a8ada4" class="label" font-size="15">Post-disaster polygeneration</text>
    <g>
    <circle cx="214" cy="250" r="86" fill="#111711" stroke="#9bd69f"/><path d="M214 172 V328 M136 250 H292 M154 190 L274 310 M274 190 L154 310" stroke="#2f3a32"/>
    <rect x="430" y="160" width="140" height="100" rx="10" fill="#111711" stroke="#d7b46a"/><rect x="430" y="300" width="140" height="100" rx="10" fill="#111711" stroke="#8fa7b3"/>
    <path class="dash" d="M300 250 H430 M570 210 C660 210 700 252 800 250 M570 350 C660 350 700 300 800 300"/>
    <text x="458" y="218" fill="#f2f0e7" font-family="ui-monospace,monospace" font-size="18">PV</text><text x="458" y="358" fill="#f2f0e7" font-family="ui-monospace,monospace" font-size="18">CHP</text>
  </g>
  <rect x="62" y="450" width="836" height="1" fill="#2d3a31"/>
  <text x="62" y="480" fill="#9bd69f" class="label" font-size="14">signal deck visual / portfolio-safe data preview</text>
</svg>
