<svg xmlns="http://www.w3.org/2000/svg" viewBox="0 0 960 540" role="img" aria-label="Industrial KPI toolkit dashboard">
  <rect width="960" height="540" fill="#0b1728"/>
  <rect x="54" y="56" width="852" height="428" rx="24" fill="#122238" stroke="#22344f"/>
  <g fill="#07111f" stroke="#22344f" stroke-width="4">
    <rect x="104" y="112" width="350" height="122" rx="16"/>
    <rect x="506" y="112" width="350" height="122" rx="16"/>
    <rect x="104" y="286" width="752" height="132" rx="16"/>
  </g>
  <text x="136" y="160" fill="#65d6c9" font-family="Arial, sans-serif" font-size="24" font-weight="700">Baseline model</text>
  <text x="538" y="160" fill="#65d6c9" font-family="Arial, sans-serif" font-size="24" font-weight="700">Flags + actions</text>
  <g fill="#65d6c9">
    <rect x="138" y="352" width="50" height="36" rx="8"/>
    <rect x="218" y="326" width="50" height="62" rx="8"/>
    <rect x="298" y="344" width="50" height="44" rx="8"/>
    <rect x="378" y="306" width="50" height="82" rx="8"/>
    <rect x="458" y="334" width="50" height="54" rx="8"/>
  </g>
  <g fill="none" stroke="#8bb8ff" stroke-width="7">
    <path d="M552 374h230"/>
    <path d="M552 334h170"/>
  </g>
  <circle cx="790" cy="334" r="18" fill="#ffd166"/>
  <circle cx="816" cy="374" r="18" fill="#65d6c9"/>
</svg>
