<svg xmlns="http://www.w3.org/2000/svg" viewBox="0 0 960 540" role="img" aria-label="Industrial energy KPI and ISO 50001 EnPI dashboard">

  
  <rect width="960" height="540" fill="#09131f"/>
  
  <rect x="20" y="20" width="620" height="500" rx="18" fill="#0f1e30" stroke="#1e3248" stroke-width="1"/>
  
  <rect x="658" y="20" width="284" height="500" rx="18" fill="#0f1e30" stroke="#1e3248" stroke-width="1"/>

  
  <text x="42" y="52" fill="#ffd166" font-family="ui-monospace,monospace" font-size="11" font-weight="700" letter-spacing="1">ENERGY PERFORMANCE - ISO 50001</text>
  <text x="42" y="68" fill="#4a6a88" font-family="ui-monospace,monospace" font-size="10">EnPI normalisation - baseline - improvement roadmap - Alleima</text>

  

  
  <rect x="70" y="90" width="185" height="300" fill="#8bb8ff" opacity="0.025" rx="4"/>
  <rect x="255" y="90" width="185" height="300" fill="#ffd166" opacity="0.025" rx="4"/>
  <rect x="440" y="90" width="170" height="300" fill="#4ade80" opacity="0.025" rx="4"/>

  
  <text x="162" y="106" fill="#2a4a68" font-family="ui-monospace,monospace" font-size="9" text-anchor="middle">YEAR 1 - BASELINE</text>
  <text x="347" y="106" fill="#2a4a68" font-family="ui-monospace,monospace" font-size="9" text-anchor="middle">YEAR 2 - IMPLEMENT</text>
  <text x="525" y="106" fill="#2a4a68" font-family="ui-monospace,monospace" font-size="9" text-anchor="middle">YEAR 3 - VERIFY</text>

  
  <g stroke="#1a2e42" stroke-width="0.7" stroke-dasharray="3 5">
    <line x1="70" y1="218" x2="610" y2="218"/>
    <line x1="70" y1="261" x2="610" y2="261"/>
    <line x1="70" y1="304" x2="610" y2="304"/>
    <line x1="70" y1="347" x2="610" y2="347"/>
    <line x1="70" y1="175" x2="610" y2="175"/>
  </g>

  
  <line x1="70" y1="218" x2="610" y2="218" stroke="#8bb8ff" stroke-width="1.5" stroke-dasharray="6 4" opacity="0.5"/>
  
  <line x1="70" y1="315" x2="610" y2="315" stroke="#4ade80" stroke-width="1.5" stroke-dasharray="5 3" opacity="0.7"/>

  
  <path d="M255,246 L270.6,258 L286,250 L301.4,267 L316.9,275 L332.3,258 L347.7,246 L363.1,271 L378.6,279 L394,258 L409.4,275 L424.9,286 L440.3,290 L455.7,297 L471.1,310 L486.6,297 L502,314 L517.4,307 L532.9,321 L548.3,310 L563.7,321 L579.1,314 L594.6,321 L610,331 L610,325 L594.6,321 L579.1,315 L563.7,315 L548.3,304 L532.9,315 L517.4,301 L502,308 L486.6,291 L471.1,304 L455.7,284 L440.3,284 L424.9,280 L409.4,269 L394,252 L378.6,273 L363.1,265 L347.7,240 L332.3,252 L316.9,269 L301.4,261 L286,244 L270.6,252 L255,239 Z" fill="#4ade80" opacity="0.08"/>

  
  <polyline points="70,225 85.4,209 100.9,197 116.3,218 131.7,226 147.1,205 162.6,188 178,221 193.4,231 208.9,212 224.3,201 239.7,225 255.1,239 270.6,252 286,244 301.4,261 316.9,269 332.3,252 347.7,240 363.1,265 378.6,273 394,252 409.4,269 424.9,280 440.3,284 455.7,291 471.1,304 486.6,291 502,308 517.4,301 532.9,315 548.3,304 563.7,318 579.1,308 594.6,315 610,325" fill="none" stroke="#ffd166" stroke-width="2.5" stroke-linejoin="round" stroke-linecap="round"/>

  
  <g fill="#ffd166">
    <circle cx="70" cy="225" r="3"/>
    <circle cx="85.4" cy="209" r="3"/>
    <circle cx="100.9" cy="197" r="3"/>
    <circle cx="116.3" cy="218" r="3"/>
    <circle cx="131.7" cy="226" r="3"/>
    <circle cx="147.1" cy="205" r="3"/>
    <circle cx="162.6" cy="188" r="3"/>
    <circle cx="178" cy="221" r="3"/>
    <circle cx="193.4" cy="231" r="3"/>
    <circle cx="208.9" cy="212" r="3"/>
    <circle cx="224.3" cy="201" r="3"/>
    <circle cx="239.7" cy="225" r="3"/>
    <circle cx="255.1" cy="239" r="3.5" fill="#ffd166" stroke="#0f1e30" stroke-width="1"/>
    <circle cx="270.6" cy="252" r="3.5"/>
    <circle cx="286" cy="244" r="3.5"/>
    <circle cx="301.4" cy="261" r="3.5"/>
    <circle cx="316.9" cy="269" r="3.5"/>
    <circle cx="332.3" cy="252" r="3.5"/>
    <circle cx="347.7" cy="240" r="3.5"/>
    <circle cx="363.1" cy="265" r="3.5"/>
    <circle cx="378.6" cy="273" r="3.5"/>
    <circle cx="394" cy="252" r="3.5"/>
    <circle cx="409.4" cy="269" r="3.5"/>
    <circle cx="424.9" cy="280" r="3.5"/>
    <circle cx="440.3" cy="284" r="4" stroke="#4ade80" stroke-width="1.5"/>
    <circle cx="455.7" cy="291" r="4" stroke="#4ade80" stroke-width="1.5"/>
    <circle cx="471.1" cy="304" r="4" stroke="#4ade80" stroke-width="1.5"/>
    <circle cx="486.6" cy="291" r="4" stroke="#4ade80" stroke-width="1.5"/>
    <circle cx="502" cy="308" r="4" stroke="#4ade80" stroke-width="1.5"/>
    <circle cx="517.4" cy="301" r="4" stroke="#4ade80" stroke-width="1.5"/>
    <circle cx="532.9" cy="315" r="4" stroke="#4ade80" stroke-width="1.5"/>
    <circle cx="548.3" cy="304" r="4" stroke="#4ade80" stroke-width="1.5"/>
    <circle cx="563.7" cy="318" r="4" stroke="#4ade80" stroke-width="1.5"/>
    <circle cx="579.1" cy="308" r="4" stroke="#4ade80" stroke-width="1.5"/>
    <circle cx="594.6" cy="315" r="4" stroke="#4ade80" stroke-width="1.5"/>
    <circle cx="610" cy="325" r="5" stroke="#4ade80" stroke-width="2"/>
  </g>

  
  <line x1="162.6" y1="184" x2="162.6" y2="140" stroke="#ffd166" stroke-width="1" stroke-dasharray="3 3" opacity="0.6"/>
  <rect x="126" y="122" width="74" height="18" rx="5" fill="#1a1608" stroke="#ffd166" stroke-width="1" opacity="0.9"/>
  <text x="163" y="135" fill="#ffd166" font-family="ui-monospace,monospace" font-size="9" text-anchor="middle">- anomaly +8%</text>

  
  <line x1="70" y1="90" x2="70" y2="390" stroke="#1e3248" stroke-width="1"/>
  <line x1="70" y1="390" x2="610" y2="390" stroke="#1e3248" stroke-width="1"/>

  
  <g fill="#3a5870" font-family="ui-monospace,monospace" font-size="10" text-anchor="end">
    <text x="64" y="222">1.00</text>
    <text x="64" y="265">0.90</text>
    <text x="64" y="308">0.80</text>
    <text x="64" y="351">0.70</text>
    <text x="64" y="179">1.10</text>
  </g>
  <text transform="rotate(-90 24 240)" x="24" y="240" fill="#3a5870" font-family="ui-monospace,monospace" font-size="10" text-anchor="middle">EnPI (norm.)</text>

  
  <text x="614" y="222" fill="#8bb8ff" font-family="ui-monospace,monospace" font-size="8.5" opacity="0.7">baseline</text>
  <text x="614" y="319" fill="#4ade80" font-family="ui-monospace,monospace" font-size="8.5" opacity="0.7">target</text>

  
  <g fill="#3a5870" font-family="ui-monospace,monospace" font-size="9.5" text-anchor="middle">
    <text x="70" y="406">Jan Y1</text>
    <text x="162.6" y="406">Jul Y1</text>
    <text x="255.1" y="406">Jan Y2</text>
    <text x="347.7" y="406">Jul Y2</text>
    <text x="440.3" y="406">Jan Y3</text>
    <text x="532.9" y="406">Jul Y3</text>
    <text x="610" y="406">Dec Y3</text>
  </g>

  
  <line x1="155" y1="218" x2="155" y2="315" stroke="#4ade80" stroke-width="1.5" marker-end="url(#arr-down)" opacity="0.8"/>
  <defs>
    <marker id="arr-down" markerWidth="6" markerHeight="6" refX="3" refY="5" orient="auto">
      <path d="M0,0 L6,0 L3,6 Z" fill="#4ade80"/>
    </marker>
  </defs>
  <rect x="158" y="256" width="50" height="16" rx="4" fill="#081a0c"/>
  <text x="183" y="268" fill="#4ade80" font-family="ui-monospace,monospace" font-size="9" text-anchor="middle">-22%</text>

  
  <g font-family="system-ui,sans-serif" font-size="10" font-weight="600">
    <line x1="42" y1="452" x2="62" y2="452" stroke="#ffd166" stroke-width="2.5"/>
    <circle cx="52" cy="452" r="3" fill="#ffd166"/>
    <text x="66" y="456" fill="#908040">EnPI actual</text>
    <line x1="168" y1="452" x2="188" y2="452" stroke="#8bb8ff" stroke-width="1.5" stroke-dasharray="5 3" opacity="0.7"/>
    <text x="192" y="456" fill="#6080a0">Baseline 1.0</text>
    <line x1="302" y1="452" x2="322" y2="452" stroke="#4ade80" stroke-width="1.5" stroke-dasharray="5 3" opacity="0.7"/>
    <text x="326" y="456" fill="#40a060">Target 0.78</text>
    <rect x="434" y="446" width="10" height="10" rx="2" fill="#4ade80" opacity="0.2"/>
    <text x="448" y="456" fill="#40a060">Trend band</text>
  </g>

  <text x="42" y="476" fill="#4a6a88" font-family="system-ui,sans-serif" font-size="10">Load drivers: production volume, HDD, steam pressure - normalisation applied monthly</text>
  <text x="42" y="492" fill="#4a6a88" font-family="system-ui,sans-serif" font-size="10">ISO 50001 - EED - KPI/EnPI framework - metering readiness assessment</text>

  
  <text x="680" y="52" fill="#ffd166" font-family="ui-monospace,monospace" font-size="11" font-weight="700" letter-spacing="1">KPI SUMMARY</text>
  <line x1="680" y1="62" x2="922" y2="62" stroke="#1e3248" stroke-width="1"/>

  <text x="680" y="86" fill="#7a9ab8" font-family="system-ui,sans-serif" font-size="10">EnPI improvement</text>
  <text x="922" y="86" fill="#4ade80" font-family="ui-monospace,monospace" font-size="22" font-weight="700" text-anchor="end">-22%</text>
  <line x1="680" y1="96" x2="922" y2="96" stroke="#1e3248" stroke-width="1"/>

  <text x="680" y="120" fill="#7a9ab8" font-family="system-ui,sans-serif" font-size="10">Energy savings</text>
  <text x="922" y="120" fill="#c7f36f" font-family="ui-monospace,monospace" font-size="22" font-weight="700" text-anchor="end">4 200 MWh</text>
  <line x1="680" y1="130" x2="922" y2="130" stroke="#1e3248" stroke-width="1"/>

  <text x="680" y="154" fill="#7a9ab8" font-family="system-ui,sans-serif" font-size="10">Anomalies flagged</text>
  <text x="922" y="154" fill="#ffd166" font-family="ui-monospace,monospace" font-size="22" font-weight="700" text-anchor="end">3</text>
  <line x1="680" y1="164" x2="922" y2="164" stroke="#1e3248" stroke-width="1"/>

  <text x="680" y="188" fill="#7a9ab8" font-family="system-ui,sans-serif" font-size="10">Metering gaps closed</text>
  <text x="922" y="188" fill="#8bb8ff" font-family="ui-monospace,monospace" font-size="22" font-weight="700" text-anchor="end">7 / 12</text>
  <line x1="680" y1="198" x2="922" y2="198" stroke="#1e3248" stroke-width="1"/>

  <text x="680" y="222" fill="#7a9ab8" font-family="system-ui,sans-serif" font-size="10">Roadmap items</text>
  <text x="922" y="222" fill="#ff8a5b" font-family="ui-monospace,monospace" font-size="22" font-weight="700" text-anchor="end">11</text>
  <line x1="680" y1="232" x2="922" y2="232" stroke="#1e3248" stroke-width="1"/>

  
  <text x="680" y="256" fill="#4a6a88" font-family="ui-monospace,monospace" font-size="10" letter-spacing="0.5">SEU BREAKDOWN</text>
  <g font-family="ui-monospace,monospace" font-size="9">
    <text x="680" y="276" fill="#9a8060">Steam</text>
    <rect x="680" y="280" width="220" height="9" rx="3" fill="#1a2e42"/>
    <rect x="680" y="280" width="145" height="9" rx="3" fill="#ffd166" opacity="0.7"/>
    <text x="828" y="289" fill="#ffd166">66%</text>

    <text x="680" y="304" fill="#508060">Compressed air</text>
    <rect x="680" y="308" width="220" height="9" rx="3" fill="#1a2e42"/>
    <rect x="680" y="308" width="55" height="9" rx="3" fill="#65d6c9" opacity="0.7"/>
    <text x="738" y="317" fill="#65d6c9">25%</text>

    <text x="680" y="332" fill="#606090">Lighting</text>
    <rect x="680" y="336" width="220" height="9" rx="3" fill="#1a2e42"/>
    <rect x="680" y="336" width="20" height="9" rx="3" fill="#8b7fff" opacity="0.7"/>
    <text x="703" y="345" fill="#8b7fff">9%</text>
  </g>

  <line x1="680" y1="358" x2="922" y2="358" stroke="#1e3248" stroke-width="1"/>

  
  <text x="680" y="378" fill="#4a6a88" font-family="ui-monospace,monospace" font-size="10" letter-spacing="0.5">TOP ACTIONS</text>
  <text x="680" y="398" fill="#4ade80" font-family="system-ui,sans-serif" font-size="10">- Steam trap survey completed</text>
  <text x="680" y="416" fill="#4ade80" font-family="system-ui,sans-serif" font-size="10">- VSD on compressor 3</text>
  <text x="680" y="434" fill="#ffd166" font-family="system-ui,sans-serif" font-size="10">- Heat recovery phase 2</text>
  <text x="680" y="452" fill="#ffd166" font-family="system-ui,sans-serif" font-size="10">- Sub-metering expansion</text>
  <text x="680" y="470" fill="#4a6a88" font-family="system-ui,sans-serif" font-size="10">- LED upgrade (planned)</text>
  <text x="680" y="488" fill="#4a6a88" font-family="system-ui,sans-serif" font-size="10">- Waste heat capture (planned)</text>
  <text x="680" y="506" fill="#4a6a88" font-family="ui-monospace,monospace" font-size="9">Python - Streamlit - Excel - ISO 50001</text>
</svg>
