<svg xmlns="http://www.w3.org/2000/svg" viewBox="0 0 960 540" role="img" aria-label="Thermal energy storage peak shaving model">
  <rect width="960" height="540" fill="#0d1016"/>
  <rect x="28" y="26" width="904" height="488" rx="18" fill="#141923" stroke="#343640"/>
  <text x="56" y="62" fill="#8ec8ff" font-family="ui-monospace,monospace" font-size="13" font-weight="700">THERMAL ENERGY STORAGE PEAK SHAVING</text>
  <text x="56" y="82" fill="#b9b4aa" font-family="ui-monospace,monospace" font-size="10">cooling demand cap - TES charge/discharge - ice vs PCM comparison</text>
  <rect x="56" y="116" width="558" height="318" rx="16" fill="#0f131b" stroke="#2f3542"/>
  <g stroke="#343640" stroke-width="1">
    <line x1="96" y1="376" x2="574" y2="376"/>
    <line x1="96" y1="318" x2="574" y2="318"/>
    <line x1="96" y1="260" x2="574" y2="260"/>
    <line x1="96" y1="202" x2="574" y2="202"/>
    <line x1="96" y1="144" x2="574" y2="144"/>
  </g>
  <path d="M96 370 C140 350 164 300 202 282 C250 258 276 150 326 146 C374 142 392 246 430 264 C470 284 508 260 574 286" fill="none" stroke="#ff6a4a" stroke-width="4"/>
  <path d="M96 370 C140 350 164 300 202 282 C250 258 276 214 326 214 C374 214 392 222 430 238 C470 258 508 260 574 286" fill="none" stroke="#8ec8ff" stroke-width="4"/>
  <line x1="96" y1="214" x2="574" y2="214" stroke="#c7f36f" stroke-width="3" stroke-dasharray="8 8"/>
  <path d="M276 214 C292 176 310 148 326 146 C358 144 374 184 392 214 Z" fill="#ff6a4a" opacity="0.28"/>
  <path d="M276 214 C298 242 362 242 392 214 Z" fill="#8ec8ff" opacity="0.26"/>
  <g font-family="ui-monospace,monospace" font-size="11" fill="#b9b4aa">
    <text x="104" y="404">0h</text><text x="226" y="404">6h</text><text x="350" y="404">12h</text><text x="474" y="404">18h</text><text x="552" y="404">24h</text>
    <text x="416" y="206" fill="#c7f36f">demand cap</text>
  </g>
  <rect x="650" y="116" width="254" height="318" rx="16" fill="#0f131b" stroke="#2f3542"/>
  <text x="674" y="150" fill="#f4f1ea" font-family="Inter,Arial,sans-serif" font-size="16" font-weight="700">Storage sizing</text>
  <g font-family="ui-monospace,monospace" font-size="11" fill="#b9b4aa">
    <text x="674" y="186">Ice storage</text>
    <rect x="674" y="196" width="162" height="12" rx="6" fill="#343640"/><rect x="674" y="196" width="126" height="12" rx="6" fill="#8ec8ff"/>
    <text x="674" y="234">PCM volume</text>
    <rect x="674" y="244" width="162" height="12" rx="6" fill="#343640"/><rect x="674" y="244" width="92" height="12" rx="6" fill="#c7f36f"/>
    <text x="674" y="282">Cost trade-off</text>
    <rect x="674" y="292" width="162" height="12" rx="6" fill="#343640"/><rect x="674" y="292" width="110" height="12" rx="6" fill="#ffd166"/>
  </g>
  <text x="56" y="468" fill="#b9b4aa" font-family="ui-monospace,monospace" font-size="11">Load shape -> peak cap -> charge/discharge schedule -> storage medium comparison</text>
</svg>
