<svg xmlns="http://www.w3.org/2000/svg" viewBox="0 0 960 540" role="img" aria-label="Distribution grid power-flow and N-1 screening">
  <defs>
    <linearGradient id="bg" x1="0" y1="0" x2="0" y2="1">
      <stop offset="0" stop-color="#111923"/>
      <stop offset="1" stop-color="#0b1118"/>
    </linearGradient>
  </defs>
  <rect width="960" height="540" fill="url(#bg)"/>
  <rect x="34" y="30" width="892" height="480" rx="22" fill="#142233" stroke="#2a3b4f"/>
  <rect x="34" y="30" width="892" height="62" rx="22" fill="#102033"/>
  <text x="62" y="69" fill="#e6edf3" font-family="ui-monospace,monospace" font-size="20" font-weight="700">MV GRID STUDY | POWER FLOW + N-1 + EV/PV/BESS</text>

  <rect x="66" y="126" width="558" height="330" rx="14" fill="#0d1621" stroke="#2a3b4f"/>
  <g stroke-linecap="round" stroke-width="5" fill="none">
    <path d="M130 294H240L326 218H440L520 272" stroke="#22c55e"/>
    <path d="M240 294V374" stroke="#f59e0b"/>
    <path d="M440 218V146" stroke="#ef4444"/>
    <path d="M520 272H574" stroke="#22c55e"/>
  </g>
  <g fill="#0f1b2a" stroke="#89a0b8" stroke-width="3">
    <circle cx="130" cy="294" r="16"/><circle cx="240" cy="294" r="16"/><circle cx="326" cy="218" r="16"/>
    <circle cx="440" cy="218" r="16"/><circle cx="520" cy="272" r="16"/><circle cx="240" cy="374" r="14"/>
    <circle cx="440" cy="146" r="14"/><circle cx="574" cy="272" r="14"/>
  </g>

  <g font-family="ui-monospace,monospace" font-size="13" fill="#d8e3ee">
    <text x="112" y="326">B01</text><text x="222" y="326">B02</text><text x="308" y="250">B03</text>
    <text x="422" y="250">B04</text><text x="502" y="304">B05</text>
    <text x="208" y="402">EV</text><text x="424" y="173">PV</text><text x="562" y="298">BESS</text>
  </g>

  <rect x="652" y="126" width="242" height="330" rx="14" fill="#0d1621" stroke="#2a3b4f"/>
  <text x="676" y="162" fill="#7dd3fc" font-family="ui-monospace,monospace" font-size="16" font-weight="700">N-1 SUMMARY</text>
  <g font-family="ui-monospace,monospace" font-size="14" fill="#d9e3ec">
    <text x="676" y="196">Peak line loading: 93%</text>
    <text x="676" y="222">Worst node deltaV: -6.1%</text>
    <text x="676" y="248">Contingencies tested: 8</text>
    <text x="676" y="274">24h horizon: pass</text>
    <text x="676" y="300">EV uplift: +14%</text>
    <text x="676" y="326">PV clip risk: 2 feeders</text>
    <text x="676" y="352">BESS relief: -11% peak</text>
  </g>
</svg>
