<svg xmlns="http://www.w3.org/2000/svg" viewBox="0 0 960 540" role="img" aria-label="District heating multi-asset dispatch optimisation">

  
  <rect width="960" height="540" fill="#09131f"/>
  
  <rect x="20" y="20" width="680" height="500" rx="18" fill="#0f1e30" stroke="#1e3248" stroke-width="1"/>
  
  <rect x="720" y="20" width="224" height="500" rx="18" fill="#0f1e30" stroke="#1e3248" stroke-width="1"/>

  
  <text x="42" y="54" fill="#ff8a5b" font-family="ui-monospace,monospace" font-size="11" font-weight="700" letter-spacing="1">DISTRICT HEATING - MILP DISPATCH</text>
  <text x="42" y="70" fill="#4a6a88" font-family="ui-monospace,monospace" font-size="10">PuLP - HiGHS - 8760 h - cost + CO2 objectives</text>

  

  
  <path d="M60,352 L85,352 L110,352 L135,352 L160,352 L185,352 L210,352 L235,352 L260,352 L285,352 L310,352 L335,352 L360,352 L385,352 L410,352 L435,352 L460,352 L485,352 L510,352 L535,352 L560,352 L585,352 L610,352 L635,352 L635,410 L60,410 Z" fill="#c04020" opacity="0.55"/>

  
  <path d="M60,263 L85,257 L110,250 L135,244 L160,257 L185,269 L210,288 L235,308 L260,320 L285,327 L310,327 L335,327 L360,327 L385,327 L410,320 L435,308 L460,295 L485,276 L510,257 L535,244 L560,250 L585,257 L610,263 L635,269 L635,352 L610,352 L585,352 L560,352 L535,352 L510,352 L485,352 L460,352 L435,352 L410,352 L385,352 L360,352 L335,352 L310,352 L285,352 L260,352 L235,352 L210,352 L185,352 L160,352 L135,352 L110,352 L85,352 L60,352 Z" fill="#ff8a5b" opacity="0.5"/>

  
  <path d="M60,263 L85,257 L110,250 L135,244 L160,257 L185,269 L210,263 L235,263 L260,263 L285,257 L310,250 L335,257 L360,263 L385,269 L410,276 L435,282 L460,295 L485,276 L510,257 L535,244 L560,250 L585,257 L610,263 L635,269 L635,269 L610,263 L585,257 L560,250 L535,244 L510,257 L485,276 L460,295 L435,308 L410,320 L385,327 L360,327 L335,327 L310,327 L285,327 L260,320 L235,308 L210,288 L185,269 L160,257 L135,244 L110,250 L85,257 L60,263 Z" fill="#65d6c9" opacity="0.45"/>

  
  <path d="M60,263 L85,257 L110,250 L135,244 L160,257 L185,269 L210,263 L235,263 L260,263 L285,257 L310,250 L335,257 L360,263 L385,269 L410,276 L435,282 L460,282 L485,250 L510,211 L535,211 L560,231 L585,250 L610,263 L635,269 L635,269 L610,263 L585,257 L560,250 L535,244 L510,257 L485,276 L460,295 L435,282 L410,276 L385,269 L360,263 L335,257 L310,250 L285,257 L260,263 L235,263 L210,263 L185,269 L160,257 L135,244 L110,250 L85,257 L60,263 Z" fill="#8b7fff" opacity="0.45"/>

  
  <polyline points="60,269 85,276 110,282 135,288 160,282 185,269 210,237 235,205 260,192 285,180 310,173 335,180 360,186 385,192 410,205 435,230 460,212 485,173 510,154 535,160 560,180 585,205 610,237 635,263" fill="none" stroke="#f4f1ea" stroke-width="2.5" stroke-linejoin="round" stroke-linecap="round" opacity="0.9"/>

  
  <polyline points="60,275 85,280 110,286 135,292 160,286 185,274 210,246 235,218 260,206 285,194 310,188 335,196 360,202 385,208 410,220 435,242 460,226 485,188 510,170 535,176 560,196 585,218 610,246 635,270" fill="none" stroke="#c7f36f" stroke-width="1.5" stroke-dasharray="6 4" stroke-linecap="round" opacity="0.65"/>

  
  <line x1="60" y1="410" x2="660" y2="410" stroke="#1e3248" stroke-width="1"/>
  <line x1="60" y1="90" x2="60" y2="410" stroke="#1e3248" stroke-width="1"/>

  
  <g stroke="#1a2e42" stroke-width="0.6" stroke-dasharray="3 5">
    <line x1="60" y1="250" x2="660" y2="250"/>
    <line x1="60" y1="330" x2="660" y2="330"/>
    <line x1="60" y1="170" x2="660" y2="170"/>
  </g>

  
  <g fill="#3a5870" font-family="ui-monospace,monospace" font-size="10" text-anchor="end">
    <text x="54" y="414">0</text>
    <text x="54" y="334">25</text>
    <text x="54" y="254">50</text>
    <text x="54" y="174">75</text>
  </g>
  <text transform="rotate(-90 28 270)" x="28" y="270" fill="#3a5870" font-family="ui-monospace,monospace" font-size="10" text-anchor="middle">MW heat</text>

  
  <g fill="#3a5870" font-family="ui-monospace,monospace" font-size="10" text-anchor="middle">
    <text x="60" y="428">0h</text>
    <text x="160" y="428">4h</text>
    <text x="260" y="428">8h</text>
    <text x="360" y="428">12h</text>
    <text x="460" y="428">16h</text>
    <text x="560" y="428">20h</text>
    <text x="635" y="428">24h</text>
  </g>

  
  <g font-family="system-ui,sans-serif" font-size="11" font-weight="600">
    <rect x="60" y="450" width="10" height="10" rx="2" fill="#c04020" opacity="0.8"/>
    <text x="74" y="460" fill="#9a7060">Biomass</text>
    <rect x="152" y="450" width="10" height="10" rx="2" fill="#ff8a5b" opacity="0.8"/>
    <text x="166" y="460" fill="#c07858">CHP</text>
    <rect x="218" y="450" width="10" height="10" rx="2" fill="#65d6c9" opacity="0.8"/>
    <text x="232" y="460" fill="#60a898">Heat pump</text>
    <rect x="338" y="450" width="10" height="10" rx="2" fill="#8b7fff" opacity="0.8"/>
    <text x="352" y="460" fill="#8070d8">Storage</text>
    <line x1="428" y1="455" x2="446" y2="455" stroke="#f4f1ea" stroke-width="2.5" opacity="0.8"/>
    <text x="450" y="460" fill="#888888">Demand</text>
    <line x1="528" y1="455" x2="546" y2="455" stroke="#c7f36f" stroke-width="1.5" stroke-dasharray="5 3" opacity="0.8"/>
    <text x="550" y="460" fill="#90b850">CO2 opt.</text>
  </g>

  
  <line x1="510" y1="155" x2="510" y2="200" stroke="#8b7fff" stroke-width="1" stroke-dasharray="3 3" opacity="0.7"/>
  <text x="514" y="152" fill="#8b7fff" font-family="ui-monospace,monospace" font-size="9">storage peak</text>

  
  <text x="738" y="54" fill="#ff8a5b" font-family="ui-monospace,monospace" font-size="11" font-weight="700" letter-spacing="1">RESULTS</text>
  <line x1="738" y1="64" x2="928" y2="64" stroke="#1e3248" stroke-width="1"/>

  <text x="738" y="88" fill="#7a9ab8" font-family="system-ui,sans-serif" font-size="10">Cost savings</text>
  <text x="928" y="88" fill="#4ade80" font-family="ui-monospace,monospace" font-size="20" font-weight="700" text-anchor="end">-14%</text>
  <line x1="738" y1="98" x2="928" y2="98" stroke="#1e3248" stroke-width="1"/>

  <text x="738" y="122" fill="#7a9ab8" font-family="system-ui,sans-serif" font-size="10">CO2 reduction</text>
  <text x="928" y="122" fill="#c7f36f" font-family="ui-monospace,monospace" font-size="20" font-weight="700" text-anchor="end">-22%</text>
  <line x1="738" y1="132" x2="928" y2="132" stroke="#1e3248" stroke-width="1"/>

  <text x="738" y="156" fill="#7a9ab8" font-family="system-ui,sans-serif" font-size="10">CHP run hours</text>
  <text x="928" y="156" fill="#ff8a5b" font-family="ui-monospace,monospace" font-size="20" font-weight="700" text-anchor="end">4 820h</text>
  <line x1="738" y1="166" x2="928" y2="166" stroke="#1e3248" stroke-width="1"/>

  <text x="738" y="190" fill="#7a9ab8" font-family="system-ui,sans-serif" font-size="10">HP dispatch share</text>
  <text x="928" y="190" fill="#65d6c9" font-family="ui-monospace,monospace" font-size="20" font-weight="700" text-anchor="end">31%</text>
  <line x1="738" y1="200" x2="928" y2="200" stroke="#1e3248" stroke-width="1"/>

  <text x="738" y="224" fill="#7a9ab8" font-family="system-ui,sans-serif" font-size="10">Storage cycles</text>
  <text x="928" y="224" fill="#8b7fff" font-family="ui-monospace,monospace" font-size="20" font-weight="700" text-anchor="end">312</text>
  <line x1="738" y1="234" x2="928" y2="234" stroke="#1e3248" stroke-width="1"/>

  
  <text x="738" y="260" fill="#4a6a88" font-family="ui-monospace,monospace" font-size="10" letter-spacing="0.5">ASSET CAPACITY</text>
  
  <g font-family="ui-monospace,monospace" font-size="9">
    <text x="738" y="284" fill="#9a7060">Biomass</text>
    <rect x="738" y="288" width="80" height="8" rx="3" fill="#1a2e42"/>
    <rect x="738" y="288" width="38" height="8" rx="3" fill="#c04020" opacity="0.7"/>
    <text x="782" y="297" fill="#c04020" font-size="8">20 MW</text>

    <text x="738" y="312" fill="#c07858">CHP</text>
    <rect x="738" y="316" width="80" height="8" rx="3" fill="#1a2e42"/>
    <rect x="738" y="316" width="60" height="8" rx="3" fill="#ff8a5b" opacity="0.7"/>
    <text x="802" y="325" fill="#ff8a5b" font-size="8">40 MW</text>

    <text x="738" y="340" fill="#60a898">Heat pump</text>
    <rect x="738" y="344" width="80" height="8" rx="3" fill="#1a2e42"/>
    <rect x="738" y="344" width="45" height="8" rx="3" fill="#65d6c9" opacity="0.7"/>
    <text x="787" y="353" fill="#65d6c9" font-size="8">30 MW</text>

    <text x="738" y="368" fill="#8070d8">Storage</text>
    <rect x="738" y="372" width="80" height="8" rx="3" fill="#1a2e42"/>
    <rect x="738" y="372" width="30" height="8" rx="3" fill="#8b7fff" opacity="0.7"/>
    <text x="772" y="381" fill="#8b7fff" font-size="8">20 MW</text>
  </g>

  <line x1="738" y1="394" x2="928" y2="394" stroke="#1e3248" stroke-width="1"/>
  <text x="738" y="414" fill="#4a6a88" font-family="system-ui,sans-serif" font-size="10">Outage window</text>
  <text x="738" y="430" fill="#ffd166" font-family="ui-monospace,monospace" font-size="11" font-weight="600">CHP off: h 1440-1608</text>
  <text x="738" y="446" fill="#4a6a88" font-family="system-ui,sans-serif" font-size="9">Dispatch re-optimised</text>

  <text x="738" y="476" fill="#4a6a88" font-family="system-ui,sans-serif" font-size="10">Solver</text>
  <text x="738" y="492" fill="#8bb8ff" font-family="ui-monospace,monospace" font-size="11" font-weight="600">PuLP - HiGHS - MILP</text>
</svg>
