<svg xmlns="http://www.w3.org/2000/svg" viewBox="0 0 960 540" role="img" aria-label="EU ETS carbon allowance price curve and emissions exposure dashboard">
  <defs>
    <linearGradient id="bg" x1="0" y1="0" x2="0" y2="1">
      <stop offset="0" stop-color="#0b1220"></stop><stop offset="1" stop-color="#070c16"></stop>
    </linearGradient>
    <linearGradient id="areafill" x1="0" y1="0" x2="0" y2="1">
      <stop offset="0%" stop-color="#38bdf8" stop-opacity="0.25"></stop>
      <stop offset="100%" stop-color="#38bdf8" stop-opacity="0.02"></stop>
    </linearGradient>
    <linearGradient id="surplusfill" x1="0" y1="0" x2="0" y2="1">
      <stop offset="0%" stop-color="#4ade80" stop-opacity="0.3"></stop>
      <stop offset="100%" stop-color="#4ade80" stop-opacity="0.02"></stop>
    </linearGradient>
    <linearGradient id="deficitfill" x1="0" y1="0" x2="0" y2="1">
      <stop offset="0%" stop-color="#d0622c" stop-opacity="0.02"></stop>
      <stop offset="100%" stop-color="#d0622c" stop-opacity="0.3"></stop>
    </linearGradient>
  </defs>
  <rect width="960" height="540" fill="url(#bg)"></rect>


  <rect x="24" y="14" width="912" height="36" rx="5" fill="#0d1a2e"></rect>
  <text x="44" y="38" font-family="monospace" font-size="14" fill="#65d6c9" font-weight="bold">EU EMISSIONS TRADING SYSTEM · EUA PRICE · ALLOWANCE EXPOSURE</text>


  <rect x="60" y="68" width="560" height="380" rx="4" fill="#0d1a2e"></rect>


  <line x1="60" y1="144" x2="620" y2="144" stroke="#152540" stroke-width="0.8"></line>
  <line x1="60" y1="220" x2="620" y2="220" stroke="#152540" stroke-width="0.8"></line>
  <line x1="60" y1="296" x2="620" y2="296" stroke="#152540" stroke-width="0.8"></line>
  <line x1="60" y1="372" x2="620" y2="372" stroke="#152540" stroke-width="0.8"></line>


  <line x1="90" y1="68" x2="90" y2="420" stroke="#2a4060" stroke-width="1.2"></line>
  <line x1="90" y1="420" x2="620" y2="420" stroke="#2a4060" stroke-width="1.2"></line>


  <text x="84" y="424" font-family="monospace" font-size="9" fill="#2a4060" text-anchor="end">0</text>
  <text x="84" y="374" font-family="monospace" font-size="9" fill="#2a4060" text-anchor="end">20</text>
  <text x="84" y="298" font-family="monospace" font-size="9" fill="#2a4060" text-anchor="end">50</text>
  <text x="84" y="222" font-family="monospace" font-size="9" fill="#2a4060" text-anchor="end">80</text>
  <text x="84" y="146" font-family="monospace" font-size="9" fill="#2a4060" text-anchor="end">110</text>
  <text x="66" y="250" font-family="monospace" font-size="9" fill="#2a4060" transform="rotate(-90,66,250)" text-anchor="middle">€/tCO₂</text>


  <text x="90" y="436" font-family="monospace" font-size="9" fill="#2a4060" text-anchor="middle">2018</text>
  <text x="175" y="436" font-family="monospace" font-size="9" fill="#2a4060" text-anchor="middle">2019</text>
  <text x="260" y="436" font-family="monospace" font-size="9" fill="#2a4060" text-anchor="middle">2020</text>
  <text x="345" y="436" font-family="monospace" font-size="9" fill="#2a4060" text-anchor="middle">2021</text>
  <text x="430" y="436" font-family="monospace" font-size="9" fill="#2a4060" text-anchor="middle">2022</text>
  <text x="516" y="436" font-family="monospace" font-size="9" fill="#2a4060" text-anchor="middle">2023</text>
  <text x="600" y="436" font-family="monospace" font-size="9" fill="#2a4060" text-anchor="middle">2024</text>


  <polygon points="90,390 90,388 95,385 110,378 130,370 160,355 175,340 200,325 220,318 245,308 260,310 275,315 300,308 320,295 345,272 370,248 395,232 415,218 430,212 450,220 470,215 490,198 510,185 530,175 555,162 575,150 600,142 620,140 620,420 90,420" fill="url(#areafill)"></polygon>

  <polyline points="90,388 110,378 130,370 160,355 175,340 200,325 220,318 245,308 260,310 275,315 300,308 320,295 345,272 370,248 395,232 415,218 430,212 450,220 470,215 490,198 510,185 530,175 555,162 575,150 600,142" fill="none" stroke="#38bdf8" stroke-width="2.5"></polyline>


  <line x1="260" y1="310" x2="260" y2="420" stroke="#d0622c" stroke-width="0.8" stroke-dasharray="3,3" opacity="0.5"></line>
  <text x="258" y="100" font-family="monospace" font-size="9" fill="#d0622c" text-anchor="middle">COVID</text>
  <text x="258" y="112" font-family="monospace" font-size="9" fill="#d0622c" text-anchor="middle">dip</text>


  <line x1="430" y1="212" x2="430" y2="420" stroke="#f6c85f" stroke-width="0.8" stroke-dasharray="3,3" opacity="0.5"></line>
  <text x="428" y="100" font-family="monospace" font-size="9" fill="#f6c85f" text-anchor="middle">REPower</text>
  <text x="428" y="112" font-family="monospace" font-size="9" fill="#f6c85f" text-anchor="middle">EU peak</text>


  <text x="170" y="84" font-family="monospace" font-size="9" fill="#2a4060" text-anchor="middle">Phase 3</text>
  <text x="450" y="84" font-family="monospace" font-size="9" fill="#2a4060" text-anchor="middle">Phase 4</text>
  <line x1="345" y1="78" x2="345" y2="420" stroke="#2a4060" stroke-width="0.6" stroke-dasharray="2,4"></line>


  <circle cx="600" cy="142" r="5" fill="#38bdf8"></circle>
  <rect x="608" y="130" width="70" height="22" rx="3" fill="#0d1a2e" stroke="#38bdf8" stroke-width="1"></rect>
  <text x="614" y="145" font-family="monospace" font-size="10" fill="#38bdf8">~65 €/t</text>


  <rect x="648" y="68" width="288" height="380" rx="6" fill="#0d1a2e" stroke="#152540" stroke-width="1"></rect>
  <text x="792" y="92" font-family="monospace" font-size="12" fill="#c8d8ea" text-anchor="middle" font-weight="bold">ALLOWANCE BALANCE</text>



  <text x="700" y="115" font-family="monospace" font-size="9" fill="#2a4060" text-anchor="middle">2020</text>
  <rect x="660" y="120" width="80" height="14" rx="2" fill="#38bdf8" opacity="0.5"></rect>
  <text x="748" y="132" font-family="monospace" font-size="8" fill="#38bdf8">Alloc: 100Mt</text>
  <rect x="660" y="138" width="60" height="12" rx="2" fill="#4ade80" opacity="0.6"></rect>
  <text x="748" y="148" font-family="monospace" font-size="8" fill="#4ade80">Verif: 75Mt ↓ COVID</text>

  <text x="700" y="170" font-family="monospace" font-size="9" fill="#2a4060" text-anchor="middle">2021</text>
  <rect x="660" y="175" width="80" height="14" rx="2" fill="#38bdf8" opacity="0.5"></rect>
  <rect x="660" y="193" width="74" height="12" rx="2" fill="#f6c85f" opacity="0.6"></rect>
  <text x="748" y="203" font-family="monospace" font-size="8" fill="#f6c85f">Verif: 92Mt ↑ recovery</text>

  <text x="700" y="220" font-family="monospace" font-size="9" fill="#2a4060" text-anchor="middle">2022</text>
  <rect x="660" y="225" width="76" height="14" rx="2" fill="#38bdf8" opacity="0.5"></rect>
  <rect x="660" y="243" width="82" height="12" rx="2" fill="#d0622c" opacity="0.6"></rect>
  <text x="748" y="253" font-family="monospace" font-size="8" fill="#d0622c">Verif: 102Mt ↑ gas crisis</text>

  <text x="700" y="270" font-family="monospace" font-size="9" fill="#2a4060" text-anchor="middle">2023</text>
  <rect x="660" y="275" width="72" height="14" rx="2" fill="#38bdf8" opacity="0.5"></rect>
  <rect x="660" y="293" width="66" height="12" rx="2" fill="#4ade80" opacity="0.6"></rect>
  <text x="748" y="303" font-family="monospace" font-size="8" fill="#4ade80">Verif: 82Mt ↓ RE ramp</text>


  <line x1="660" y1="330" x2="920" y2="330" stroke="#152540" stroke-width="0.8"></line>
  <text x="792" y="352" font-family="monospace" font-size="10" fill="#c8d8ea" text-anchor="middle">Net position</text>

  <rect x="668" y="362" width="30" height="20" rx="2" fill="#4ade80" opacity="0.7"></rect>

  <rect x="728" y="362" width="30" height="20" rx="2" fill="#d0622c" opacity="0.7"></rect>

  <rect x="788" y="362" width="24" height="20" rx="2" fill="#4ade80" opacity="0.7"></rect>
  <text x="668" y="398" font-family="monospace" font-size="8" fill="#2a4060">2020</text>
  <text x="728" y="398" font-family="monospace" font-size="8" fill="#2a4060">2022</text>
  <text x="788" y="398" font-family="monospace" font-size="8" fill="#2a4060">2023</text>
  <rect x="660" y="408" width="10" height="8" fill="#4ade80" opacity="0.7"></rect>
  <text x="676" y="416" font-family="monospace" font-size="8" fill="#4ade80">Surplus</text>
  <rect x="730" y="408" width="10" height="8" fill="#d0622c" opacity="0.7"></rect>
  <text x="746" y="416" font-family="monospace" font-size="8" fill="#d0622c">Deficit</text>


  <rect x="24" y="490" width="912" height="34" rx="5" fill="#0d1a2e"></rect>
  <text x="44" y="512" font-family="monospace" font-size="11" fill="#2a4060">EU ETS · EUA price analysis · Allowance allocation · Verified emissions · MSR · Phase 3/4</text>
</svg>
