<svg xmlns="http://www.w3.org/2000/svg" viewBox="0 0 960 540" role="img" aria-label="Emergency Energy Module polygeneration post-disaster system">
  <defs>
    <linearGradient id="bg" x1="0" y1="0" x2="0" y2="1">
      <stop offset="0" stop-color="#0b1220"></stop><stop offset="1" stop-color="#070c16"></stop>
    </linearGradient>
    <marker id="arr" markerWidth="7" markerHeight="6" refX="6" refY="3" orient="auto">
      <path d="M0,0 L0,6 L7,3 z" fill="#f6c85f"></path>
    </marker>
    <marker id="arb" markerWidth="7" markerHeight="6" refX="6" refY="3" orient="auto">
      <path d="M0,0 L0,6 L7,3 z" fill="#38bdf8"></path>
    </marker>
  </defs>
  <rect width="960" height="540" fill="url(#bg)"></rect>


  <rect x="24" y="14" width="912" height="36" rx="5" fill="#0d1a2e"></rect>
  <text x="44" y="38" font-family="monospace" font-size="14" fill="#d0622c" font-weight="bold">EMERGENCY ENERGY MODULE · POLYGENERATION · POST-DISASTER RESILIENCE</text>


  <rect x="370" y="130" width="220" height="160" rx="8" fill="#0d1a2e" stroke="#d0622c" stroke-width="2.5"></rect>
  <text x="480" y="158" font-family="monospace" font-size="13" fill="#d0622c" text-anchor="middle" font-weight="bold">EEM UNIT</text>
  <line x1="380" y1="168" x2="580" y2="168" stroke="#152540" stroke-width="0.8"></line>

  <rect x="382" y="176" width="60" height="36" rx="3" fill="#0f2240" stroke="#f6c85f" stroke-width="1"></rect>
  <text x="412" y="191" font-family="monospace" font-size="9" fill="#f6c85f" text-anchor="middle">Diesel</text>
  <text x="412" y="203" font-family="monospace" font-size="8" fill="#f6c85f" text-anchor="middle">gen 50kW</text>
  <rect x="452" y="176" width="60" height="36" rx="3" fill="#0f2240" stroke="#65d6c9" stroke-width="1"></rect>
  <text x="482" y="191" font-family="monospace" font-size="9" fill="#65d6c9" text-anchor="middle">Fuel cell</text>
  <text x="482" y="203" font-family="monospace" font-size="8" fill="#65d6c9" text-anchor="middle">20kW H₂</text>
  <rect x="522" y="176" width="46" height="36" rx="3" fill="#0f2240" stroke="#4ade80" stroke-width="1"></rect>
  <text x="545" y="191" font-family="monospace" font-size="9" fill="#4ade80" text-anchor="middle">BESS</text>
  <text x="545" y="203" font-family="monospace" font-size="8" fill="#4ade80" text-anchor="middle">40kWh</text>

  <rect x="382" y="222" width="186" height="16" rx="2" fill="#0f2240" stroke="#f6c85f" stroke-width="0.8"></rect>
  <line x1="392" y1="222" x2="392" y2="238" stroke="#f6c85f" stroke-width="0.8"></line>
  <line x1="405" y1="222" x2="405" y2="238" stroke="#f6c85f" stroke-width="0.8"></line>
  <line x1="418" y1="222" x2="418" y2="238" stroke="#f6c85f" stroke-width="0.8"></line>
  <text x="480" y="250" font-family="monospace" font-size="8" fill="#f6c85f" text-anchor="middle">PV canopy 10kWp</text>

  <rect x="382" y="264" width="186" height="14" rx="2" fill="#2563a8" opacity="0.6"></rect>
  <text x="480" y="275" font-family="monospace" font-size="8" fill="#38bdf8" text-anchor="middle">DC/AC bus · smart controller</text>




  <rect x="60" y="100" width="110" height="60" rx="5" fill="#0d1a2e" stroke="#d0622c" stroke-width="1.5"></rect>
  <text x="115" y="124" font-family="monospace" font-size="10" fill="#d0622c" text-anchor="middle" font-weight="bold">MEDICAL</text>
  <text x="115" y="138" font-family="monospace" font-size="9" fill="#c8d8ea" text-anchor="middle">Field hospital</text>
  <text x="115" y="152" font-family="monospace" font-size="8" fill="#2a4060" text-anchor="middle">Priority 1 · 15 kW</text>
  <line x1="172" y1="145" x2="368" y2="190" stroke="#d0622c" stroke-width="1.8" marker-end="url(#arr)"></line>


  <rect x="60" y="195" width="110" height="60" rx="5" fill="#0d1a2e" stroke="#f6c85f" stroke-width="1.5"></rect>
  <text x="115" y="219" font-family="monospace" font-size="10" fill="#f6c85f" text-anchor="middle" font-weight="bold">COMMS</text>
  <text x="115" y="233" font-family="monospace" font-size="9" fill="#c8d8ea" text-anchor="middle">Emergency ops</text>
  <text x="115" y="247" font-family="monospace" font-size="8" fill="#2a4060" text-anchor="middle">Priority 2 · 5 kW</text>
  <line x1="172" y1="225" x2="368" y2="210" stroke="#f6c85f" stroke-width="1.8" marker-end="url(#arr)"></line>


  <rect x="60" y="290" width="110" height="60" rx="5" fill="#0d1a2e" stroke="#38bdf8" stroke-width="1.5"></rect>
  <text x="115" y="314" font-family="monospace" font-size="10" fill="#38bdf8" text-anchor="middle" font-weight="bold">WATER</text>
  <text x="115" y="328" font-family="monospace" font-size="9" fill="#c8d8ea" text-anchor="middle">Pump + treat</text>
  <text x="115" y="342" font-family="monospace" font-size="8" fill="#2a4060" text-anchor="middle">Priority 2 · 8 kW</text>
  <line x1="172" y1="315" x2="368" y2="235" stroke="#38bdf8" stroke-width="1.8" marker-end="url(#arb)"></line>


  <rect x="790" y="100" width="130" height="60" rx="5" fill="#0d1a2e" stroke="#d0622c" stroke-width="1.5"></rect>
  <text x="855" y="124" font-family="monospace" font-size="10" fill="#d0622c" text-anchor="middle" font-weight="bold">HEAT/COOL</text>
  <text x="855" y="138" font-family="monospace" font-size="9" fill="#c8d8ea" text-anchor="middle">Shelter HVAC</text>
  <text x="855" y="152" font-family="monospace" font-size="8" fill="#2a4060" text-anchor="middle">Priority 3 · 12 kW</text>
  <line x1="790" y1="145" x2="592" y2="188" stroke="#d0622c" stroke-width="1.8" marker-end="url(#arr)"></line>


  <rect x="790" y="195" width="130" height="60" rx="5" fill="#0d1a2e" stroke="#f6c85f" stroke-width="1.5"></rect>
  <text x="855" y="219" font-family="monospace" font-size="10" fill="#f6c85f" text-anchor="middle" font-weight="bold">LIGHTING</text>
  <text x="855" y="233" font-family="monospace" font-size="9" fill="#c8d8ea" text-anchor="middle">Safety + area</text>
  <text x="855" y="247" font-family="monospace" font-size="8" fill="#2a4060" text-anchor="middle">Priority 3 · 6 kW</text>
  <line x1="790" y1="225" x2="592" y2="212" stroke="#f6c85f" stroke-width="1.8" marker-end="url(#arr)"></line>


  <rect x="380" y="320" width="100" height="50" rx="5" fill="#0d1a2e" stroke="#8f7fff" stroke-width="1.5"></rect>
  <text x="430" y="342" font-family="monospace" font-size="9" fill="#8f7fff" text-anchor="middle" font-weight="bold">FUEL STORE</text>
  <text x="430" y="356" font-family="monospace" font-size="8" fill="#2a4060" text-anchor="middle">Diesel + H₂ cyl.</text>
  <line x1="430" y1="320" x2="430" y2="292" stroke="#8f7fff" stroke-width="1.5" marker-end="url(#arb)"></line>


  <rect x="30" y="390" width="900" height="100" rx="6" fill="#0d1a2e" stroke="#152540" stroke-width="1"></rect>
  <text x="480" y="412" font-family="monospace" font-size="11" fill="#c8d8ea" text-anchor="middle" font-weight="bold">AUTONOMY — PRIORITISED LOAD SHEDDING SEQUENCE</text>

  <rect x="60" y="424" width="840" height="20" rx="3" fill="#0f2240"></rect>

  <rect x="60" y="424" width="200" height="20" rx="3" fill="#d0622c" opacity="0.8"></rect>
  <text x="160" y="437" font-family="monospace" font-size="8" fill="#c8d8ea" text-anchor="middle">P1: Medical+Comms (72h)</text>

  <rect x="260" y="424" width="280" height="20" rx="3" fill="#f6c85f" opacity="0.7"></rect>
  <text x="400" y="437" font-family="monospace" font-size="8" fill="#0a1020" text-anchor="middle">P2: +Water+Lighting (48h)</text>

  <rect x="540" y="424" width="200" height="20" rx="3" fill="#38bdf8" opacity="0.6"></rect>
  <text x="640" y="437" font-family="monospace" font-size="8" fill="#0a1020" text-anchor="middle">P3: Full load (24h)</text>

  <text x="60" y="460" font-family="monospace" font-size="9" fill="#2a4060">0h</text>
  <text x="260" y="460" font-family="monospace" font-size="9" fill="#2a4060">24h</text>
  <text x="540" y="460" font-family="monospace" font-size="9" fill="#2a4060">48h</text>
  <text x="740" y="460" font-family="monospace" font-size="9" fill="#2a4060">72h</text>
  <text x="900" y="460" font-family="monospace" font-size="9" fill="#2a4060">96h</text>


  <rect x="24" y="490" width="912" height="34" rx="5" fill="#0d1a2e"></rect>
  <text x="44" y="512" font-family="monospace" font-size="11" fill="#2a4060">Polygeneration · Diesel gen · Fuel cell · BESS · Priority load shedding · 72h autonomy design</text>
</svg>
